<svg width="51" height="51" viewBox="0 0 51 51" fill="none" xmlns="http://www.w3.org/2000/svg">
<rect x="0.5" y="0.5" width="50" height="50" rx="25" fill="#2E0E1A" stroke="#D53171"/>
<g clip-path="url(#clip0_38_896)">
<path d="M20.9413 13.8746C20.5295 13.8142 20.5099 13.7941 20.706 13.7739C21.0785 13.7136 21.9413 13.7941 22.5491 13.9349C23.9609 14.277 25.2354 15.1625 26.5883 16.712L26.9413 17.1346L27.4511 17.0541C29.6275 16.6919 31.8628 16.9736 33.7256 17.8591C34.2354 18.1006 35.0393 18.5835 35.1374 18.7043C35.1766 18.7445 35.2354 19.0061 35.2746 19.2677C35.4119 20.2136 35.353 20.9179 35.0589 21.4612C34.9021 21.7631 34.9021 21.8436 35.0001 22.1052C35.0785 22.3064 35.3138 22.4473 35.5295 22.4473C36.0001 22.4473 36.4903 21.6826 36.7256 20.616L36.8236 20.1934L37.0001 20.3947C38.0001 21.5417 38.7844 23.1315 38.9021 24.2585L38.9413 24.5603L38.7648 24.2987C38.4707 23.8359 38.1962 23.534 37.8236 23.2724C37.157 22.8095 36.4511 22.6687 34.5883 22.5681C32.9021 22.4674 31.9413 22.3266 31.0001 22.0046C29.3923 21.4612 28.5687 20.7569 26.6668 18.1609C25.8236 17.0139 25.2942 16.39 24.7648 15.8668C23.6079 14.7198 22.4511 14.116 20.9413 13.8746Z" fill="white"/>
<path d="M35.5491 16.4304C35.5883 15.6657 35.6863 15.1626 35.902 14.6998C35.9804 14.5187 36.0589 14.3577 36.0785 14.3577C36.0981 14.3577 36.0589 14.4985 36.0001 14.6595C35.8432 15.1022 35.8236 15.7261 35.9216 16.4304C36.0589 17.336 36.1177 17.4567 37.0589 18.4428C37.4903 18.9057 38.0001 19.4892 38.1961 19.7307L38.5295 20.1735L38.1961 19.8515C37.7844 19.449 36.8432 18.6843 36.6275 18.5837C36.4903 18.5032 36.4706 18.5032 36.3726 18.6038C36.2942 18.6843 36.2746 18.805 36.2746 19.3886C36.255 20.2942 36.1373 20.8577 35.8432 21.4413C35.6863 21.7431 35.6667 21.6827 35.804 21.3406C35.902 21.079 35.9216 20.9583 35.9216 20.093C35.9216 18.3422 35.7255 17.9196 34.5295 17.2153C34.2354 17.0341 33.7255 16.7725 33.4314 16.6317C33.1177 16.4908 32.8824 16.3701 32.902 16.3701C32.9412 16.3298 34.0981 16.6719 34.5491 16.8731C35.2354 17.1549 35.353 17.175 35.4314 17.1549C35.4903 17.0945 35.5295 16.9335 35.5491 16.4304Z" fill="white"/>
<path d="M21.7453 19.4289C20.9217 18.2617 20.3923 16.4506 20.51 15.1023L20.5492 14.6797L20.7453 14.7199C21.0982 14.7803 21.706 15.0218 22.0002 15.2029C22.7845 15.6859 23.1374 16.35 23.4708 18.0001C23.5688 18.4831 23.706 19.0466 23.7649 19.2277C23.8629 19.5295 24.2355 20.2339 24.5492 20.6766C24.7649 20.9986 24.6276 21.1596 24.1374 21.1193C23.3923 21.0388 22.3923 20.3345 21.7453 19.4289Z" fill="white"/>
<path d="M34.5488 28.1826C30.6665 26.5727 29.2939 25.1841 29.2939 22.8296C29.2939 22.4875 29.3136 22.2058 29.3136 22.2058C29.3332 22.2058 29.4704 22.3266 29.6469 22.4674C30.4312 23.1114 31.3136 23.3931 33.7645 23.7553C35.1959 23.9767 36.0194 24.1377 36.7645 24.3993C39.1371 25.2043 40.6077 26.8544 40.9606 29.0882C41.0587 29.7321 40.9998 30.9597 40.843 31.6036C40.7057 32.1067 40.3136 33.0324 40.2155 33.0526C40.1959 33.0526 40.1567 32.9519 40.1567 32.791C40.1175 31.9458 39.7057 31.1408 39.0194 30.517C38.1959 29.7925 37.1371 29.2492 34.5488 28.1826Z" fill="white"/>
<path d="M31.8039 28.8468C31.7647 28.5449 31.6666 28.1626 31.6078 28.0016L31.5098 27.6997L31.6862 27.9211C31.9411 28.2229 32.1372 28.5852 32.3137 29.0883C32.4509 29.4706 32.4509 29.5913 32.4509 30.2152C32.4509 30.8189 32.4313 30.9598 32.3137 31.3019C32.1176 31.8452 31.8823 32.2276 31.4902 32.6502C30.7843 33.3948 29.8627 33.7972 28.549 33.9783C28.3137 33.9985 27.647 34.0588 27.0588 34.0991C25.5882 34.1796 24.6078 34.3406 23.7255 34.6626C23.6078 34.7028 23.4902 34.7431 23.4706 34.7229C23.4313 34.6827 24.0392 34.3205 24.5294 34.079C25.2157 33.7369 25.9215 33.5557 27.4706 33.274C28.2353 33.1533 29.0196 32.9923 29.2157 32.9118C31.1568 32.2879 32.1176 30.7384 31.8039 28.8468Z" fill="white"/>
<path d="M33.5884 32.0868C33.0786 30.9397 32.9609 29.853 33.2354 28.8267C33.2746 28.7261 33.3139 28.6255 33.3531 28.6255C33.3923 28.6255 33.5099 28.6859 33.6276 28.7664C33.8629 28.9273 34.3531 29.2091 35.608 29.9134C37.1962 30.7989 38.0982 31.4831 38.7256 32.2679C39.2746 32.9521 39.608 33.7369 39.7648 34.7029C39.8629 35.2462 39.8041 36.5543 39.6668 37.0976C39.2354 38.8081 38.255 40.1766 36.8237 40.9614C36.608 41.0821 36.4315 41.1626 36.4119 41.1626C36.3923 41.1626 36.4707 40.9614 36.5884 40.7199C37.059 39.6936 37.1178 38.7075 36.7648 37.6007C36.5492 36.9165 36.0982 36.0914 35.1962 34.7029C34.1178 33.093 33.8629 32.6704 33.5884 32.0868Z" fill="white"/>
<path d="M18.9806 38.2446C20.4316 36.9969 22.2159 36.1115 23.863 35.8298C24.5688 35.709 25.7453 35.7493 26.3924 35.9304C27.4316 36.2121 28.3728 36.8158 28.863 37.5604C29.3336 38.2849 29.5492 38.9087 29.7649 40.2973C29.8434 40.8406 29.9414 41.4041 29.961 41.5248C30.1179 42.2493 30.4316 42.8127 30.8237 43.1146C31.4316 43.5774 32.4904 43.5976 33.5296 43.1951C33.7061 43.1347 33.863 43.0743 33.863 43.0945C33.9022 43.1347 33.3728 43.4969 33.0198 43.6781C32.5296 43.9397 32.1375 44.0202 31.6081 44.0202C30.6669 44.0202 29.863 43.5171 29.2159 42.5109C29.0786 42.3096 28.8041 41.726 28.5688 41.1827C27.8826 39.5527 27.5296 39.0697 26.7257 38.5264C26.0198 38.0635 25.1179 37.9629 24.4316 38.305C23.5296 38.7477 23.2943 39.935 23.9218 40.6595C24.1767 40.9613 24.6473 41.2028 25.0394 41.2632C25.7649 41.3638 26.3924 40.7802 26.3924 40.0356C26.3924 39.5527 26.2159 39.2709 25.7453 39.0496C25.1179 38.7678 24.4316 39.0898 24.4512 39.7137C24.4512 39.9753 24.5688 40.1363 24.8237 40.257C24.9806 40.3375 24.9806 40.3375 24.863 40.3174C24.2943 40.1966 24.1571 39.4722 24.6081 39.0093C25.1571 38.4459 26.3139 38.6873 26.7061 39.4722C26.863 39.7942 26.8826 40.4381 26.7453 40.8406C26.412 41.726 25.4708 42.1889 24.51 41.9273C23.863 41.7462 23.5885 41.5651 22.8041 40.74C21.4316 39.2911 20.9022 39.0093 18.9414 38.7075L18.5688 38.6471L18.9806 38.2446Z" fill="white"/>
<path fill-rule="evenodd" clip-rule="evenodd" d="M8.66656 5.86533C13.2352 11.5604 20.2744 20.4149 20.6273 20.8978C20.9215 21.3003 20.8038 21.6827 20.3136 21.9644C20.0391 22.1254 19.4705 22.2864 19.196 22.2864C18.8822 22.2864 18.5097 22.1254 18.2548 21.8638C18.0783 21.6827 17.3136 20.5356 15.5881 17.7786C14.2744 15.6656 13.1568 13.9149 13.1372 13.8947C13.0587 13.8545 13.0587 13.8545 15.4509 18.2415C16.9607 20.9985 17.4509 21.9845 17.4509 22.1053C17.4509 22.3669 17.3724 22.5077 17.0587 22.87C16.5293 23.4737 16.294 24.1579 16.1175 25.5867C15.9215 27.1765 15.3921 28.3034 13.8822 30.2152C12.9999 31.3421 12.8626 31.5433 12.647 32.0062C12.3724 32.5697 12.294 32.8916 12.2548 33.6161C12.2156 34.3808 12.294 34.8638 12.5097 35.5882C12.7058 36.2322 12.9215 36.6548 13.4509 37.4799C13.9019 38.2043 14.1764 38.7477 14.1764 38.9489C14.1764 39.1099 14.2156 39.1099 14.9215 38.9489C16.6077 38.5464 17.9999 37.8622 18.7646 37.017C19.2352 36.4938 19.3528 36.2121 19.3528 35.4876C19.3528 35.0248 19.3332 34.9242 19.2156 34.6424C19.0195 34.1997 18.647 33.8375 17.843 33.274C16.7842 32.5294 16.3332 31.9257 16.2156 31.1207C16.1175 30.4365 16.2352 29.9737 16.8234 28.7059C17.4313 27.3978 17.5881 26.8545 17.6862 25.5263C17.745 24.6811 17.843 24.339 18.0783 24.0774C18.3332 23.7957 18.5489 23.695 19.1568 23.6146C20.1568 23.4737 20.8038 23.2121 21.3136 22.709C21.7646 22.2864 21.9607 21.8638 21.9803 21.2399L21.9999 20.7771L21.745 20.4954C20.8234 19.4087 8.05872 5 7.9999 5C7.98029 5 8.29401 5.38235 8.66656 5.86533ZM14.6862 34.4814C14.9019 34.0991 14.7842 33.6161 14.4313 33.3746C14.0979 33.1533 13.5881 33.2539 13.5881 33.5557C13.5881 33.6362 13.6273 33.7167 13.745 33.757C13.9215 33.8576 13.9411 33.9582 13.8038 34.1796C13.6666 34.4009 13.6666 34.6022 13.843 34.743C14.1175 34.9644 14.4901 34.8437 14.6862 34.4814Z" fill="white"/>
<path fill-rule="evenodd" clip-rule="evenodd" d="M22.6276 23.8964C22.157 24.0372 21.706 24.5604 21.5688 25.0837C21.4904 25.4056 21.5296 25.9892 21.6668 26.1704C21.8825 26.4521 22.0786 26.5326 22.6276 26.5326C23.706 26.5326 24.6276 26.0496 24.7256 25.466C24.8237 24.983 24.4119 24.319 23.8433 24.0171C23.5492 23.8561 22.9413 23.7957 22.6276 23.8964ZM23.8825 24.9026C24.0394 24.6611 23.9805 24.3995 23.6864 24.2183C23.157 23.8762 22.3531 24.158 22.3531 24.6812C22.3531 24.9428 22.7649 25.2245 23.157 25.2245C23.4119 25.2245 23.7649 25.0635 23.8825 24.9026Z" fill="white"/>
</g>
<defs>
<clipPath id="clip0_38_896">
<rect width="33" height="39" fill="white" transform="translate(8 5)"/>
</clipPath>
</defs>
</svg>
