<svg width="33" height="39" viewBox="0 0 33 39" fill="none" xmlns="http://www.w3.org/2000/svg">
<g clip-path="url(#clip0_3598_834)">
<path d="M12.9418 8.87456C12.53 8.81419 12.5104 8.79407 12.7065 8.77394C13.079 8.71357 13.9418 8.79407 14.5496 8.93493C15.9614 9.27704 17.2359 10.1625 18.5888 11.712L18.9418 12.1346L19.4516 12.0541C21.628 11.6919 23.8633 11.9736 25.7261 12.8591C26.2359 13.1006 27.0398 13.5835 27.1378 13.7043C27.1771 13.7445 27.2359 14.0061 27.2751 14.2677C27.4124 15.2136 27.3535 15.9179 27.0594 16.4612C26.9025 16.7631 26.9025 16.8436 27.0006 17.1052C27.079 17.3064 27.3143 17.4473 27.53 17.4473C28.0006 17.4473 28.4908 16.6826 28.7261 15.616L28.8241 15.1934L29.0006 15.3947C30.0006 16.5417 30.7849 18.1315 30.9025 19.2585L30.9418 19.5603L30.7653 19.2987C30.4712 18.8359 30.1967 18.534 29.8241 18.2724C29.1575 17.8095 28.4516 17.6687 26.5888 17.5681C24.9025 17.4674 23.9418 17.3266 23.0006 17.0046C21.3927 16.4612 20.5692 15.7569 18.6673 13.1609C17.8241 12.0139 17.2947 11.39 16.7653 10.8668C15.6084 9.71976 14.4516 9.11605 12.9418 8.87456Z" fill="#FF1F76"/>
<path d="M27.5486 11.4304C27.5878 10.6657 27.6858 10.1626 27.9015 9.69977C27.98 9.51866 28.0584 9.35767 28.078 9.35767C28.0976 9.35767 28.0584 9.49853 27.9996 9.65952C27.8427 10.1022 27.8231 10.7261 27.9211 11.4304C28.0584 12.336 28.1172 12.4567 29.0584 13.4428C29.4898 13.9057 29.9996 14.4892 30.1956 14.7307L30.529 15.1735L30.1956 14.8515C29.7839 14.449 28.8427 13.6843 28.627 13.5837C28.4898 13.5032 28.4702 13.5032 28.3721 13.6038C28.2937 13.6843 28.2741 13.805 28.2741 14.3886C28.2545 15.2942 28.1368 15.8577 27.8427 16.4413C27.6858 16.7431 27.6662 16.6827 27.8035 16.3406C27.9015 16.079 27.9211 15.9583 27.9211 15.093C27.9211 13.3422 27.7251 12.9196 26.529 12.2153C26.2349 12.0341 25.7251 11.7725 25.4309 11.6317C25.1172 11.4908 24.8819 11.3701 24.9015 11.3701C24.9407 11.3298 26.0976 11.6719 26.5486 11.8731C27.2349 12.1549 27.3525 12.175 27.4309 12.1549C27.4898 12.0945 27.529 11.9335 27.5486 11.4304Z" fill="#FF1F76"/>
<path d="M13.7458 14.4289C12.9222 13.2617 12.3928 11.4506 12.5105 10.1023L12.5497 9.67969L12.7458 9.71994C13.0987 9.78031 13.7065 10.0218 14.0007 10.2029C14.785 10.6859 15.1379 11.35 15.4712 13.0001C15.5693 13.4831 15.7065 14.0466 15.7654 14.2277C15.8634 14.5295 16.2359 15.2339 16.5497 15.6766C16.7654 15.9986 16.6281 16.1596 16.1379 16.1193C15.3928 16.0388 14.3928 15.3345 13.7458 14.4289Z" fill="#FF1F76"/>
<path d="M26.5498 23.1826C22.6675 21.5727 21.2949 20.1841 21.2949 17.8296C21.2949 17.4875 21.3145 17.2058 21.3145 17.2058C21.3341 17.2058 21.4714 17.3266 21.6479 17.4674C22.4322 18.1114 23.3145 18.3931 25.7655 18.7553C27.1969 18.9767 28.0204 19.1377 28.7655 19.3993C31.1381 20.2043 32.6087 21.8544 32.9616 24.0882C33.0596 24.7321 33.0008 25.9597 32.8439 26.6036C32.7067 27.1067 32.3145 28.0324 32.2165 28.0526C32.1969 28.0526 32.1577 27.9519 32.1577 27.791C32.1185 26.9458 31.7067 26.1408 31.0204 25.517C30.1969 24.7925 29.1381 24.2492 26.5498 23.1826Z" fill="#FF1F76"/>
<path d="M23.8039 23.8468C23.7647 23.5449 23.6666 23.1626 23.6078 23.0016L23.5098 22.6997L23.6862 22.9211C23.9411 23.2229 24.1372 23.5852 24.3137 24.0883C24.4509 24.4706 24.4509 24.5913 24.4509 25.2152C24.4509 25.8189 24.4313 25.9598 24.3137 26.3019C24.1176 26.8452 23.8823 27.2276 23.4902 27.6502C22.7843 28.3948 21.8627 28.7972 20.549 28.9783C20.3137 28.9985 19.647 29.0588 19.0588 29.0991C17.5882 29.1796 16.6078 29.3406 15.7255 29.6626C15.6078 29.7028 15.4902 29.7431 15.4706 29.7229C15.4313 29.6827 16.0392 29.3205 16.5294 29.079C17.2157 28.7369 17.9215 28.5557 19.4706 28.274C20.2353 28.1533 21.0196 27.9923 21.2157 27.9118C23.1568 27.2879 24.1176 25.7384 23.8039 23.8468Z" fill="#FF1F76"/>
<path d="M25.5889 27.0868C25.0791 25.9397 24.9614 24.853 25.2359 23.8267C25.2751 23.7261 25.3143 23.6255 25.3536 23.6255C25.3928 23.6255 25.5104 23.6859 25.6281 23.7664C25.8634 23.9273 26.3536 24.2091 27.6085 24.9134C29.1967 25.7989 30.0987 26.4831 30.7261 27.2679C31.2751 27.9521 31.6085 28.7369 31.7653 29.7029C31.8634 30.2462 31.8045 31.5543 31.6673 32.0976C31.2359 33.8081 30.2555 35.1766 28.8241 35.9614C28.6085 36.0821 28.432 36.1626 28.4124 36.1626C28.3928 36.1626 28.4712 35.9614 28.5889 35.7199C29.0594 34.6936 29.1183 33.7075 28.7653 32.6007C28.5496 31.9165 28.0987 31.0914 27.1967 29.7029C26.1183 28.093 25.8634 27.6704 25.5889 27.0868Z" fill="#FF1F76"/>
<path d="M10.9801 33.2446C12.4311 31.9969 14.2154 31.1115 15.8625 30.8298C16.5684 30.709 17.7448 30.7493 18.3919 30.9304C19.4311 31.2121 20.3723 31.8158 20.8625 32.5604C21.3331 33.2849 21.5487 33.9087 21.7644 35.2973C21.8429 35.8406 21.9409 36.4041 21.9605 36.5248C22.1174 37.2493 22.4311 37.8127 22.8233 38.1146C23.4311 38.5774 24.4899 38.5976 25.5291 38.1951C25.7056 38.1347 25.8625 38.0743 25.8625 38.0945C25.9017 38.1347 25.3723 38.4969 25.0193 38.6781C24.5291 38.9397 24.137 39.0202 23.6076 39.0202C22.6664 39.0202 21.8625 38.5171 21.2154 37.5109C21.0782 37.3096 20.8037 36.726 20.5684 36.1827C19.8821 34.5527 19.5291 34.0697 18.7252 33.5264C18.0193 33.0635 17.1174 32.9629 16.4311 33.305C15.5291 33.7477 15.2938 34.935 15.9213 35.6595C16.1762 35.9613 16.6468 36.2028 17.0389 36.2632C17.7644 36.3638 18.3919 35.7802 18.3919 35.0356C18.3919 34.5527 18.2154 34.2709 17.7448 34.0496C17.1174 33.7678 16.4311 34.0898 16.4507 34.7137C16.4507 34.9753 16.5684 35.1363 16.8233 35.257C16.9801 35.3375 16.9801 35.3375 16.8625 35.3174C16.2938 35.1966 16.1566 34.4722 16.6076 34.0093C17.1566 33.4459 18.3135 33.6873 18.7056 34.4722C18.8625 34.7942 18.8821 35.4381 18.7448 35.8406C18.4115 36.726 17.4703 37.1889 16.5095 36.9273C15.8625 36.7462 15.588 36.5651 14.8037 35.74C13.4311 34.2911 12.9017 34.0093 10.9409 33.7075L10.5684 33.6471L10.9801 33.2446Z" fill="#FF1F76"/>
<path fill-rule="evenodd" clip-rule="evenodd" d="M0.667539 0.865325C5.23617 6.56037 12.2754 15.4149 12.6283 15.8978C12.9224 16.3003 12.8048 16.6827 12.3146 16.9644C12.0401 17.1254 11.4715 17.2864 11.197 17.2864C10.8832 17.2864 10.5107 17.1254 10.2558 16.8638C10.0793 16.6827 9.3146 15.5356 7.58911 12.7786C6.27538 10.6656 5.15774 8.91486 5.13813 8.89474C5.0597 8.85449 5.0597 8.85449 7.45185 13.2415C8.96166 15.9985 9.45185 16.9845 9.45185 17.1053C9.45185 17.3669 9.37342 17.5077 9.0597 17.87C8.53028 18.4737 8.29499 19.1579 8.11852 20.5867C7.92244 22.1765 7.39303 23.3034 5.88323 25.2152C5.00087 26.3421 4.86362 26.5433 4.64793 27.0062C4.37342 27.5697 4.29499 27.8916 4.25577 28.6161C4.21656 29.3808 4.29499 29.8638 4.51068 30.5882C4.70676 31.2322 4.92244 31.6548 5.45185 32.4799C5.90283 33.2043 6.17734 33.7477 6.17734 33.9489C6.17734 34.1099 6.21656 34.1099 6.92244 33.9489C8.60872 33.5464 10.0009 32.8622 10.7656 32.017C11.2362 31.4938 11.3538 31.2121 11.3538 30.4876C11.3538 30.0248 11.3342 29.9241 11.2166 29.6424C11.0205 29.1997 10.6479 28.8375 9.84401 28.274C8.78519 27.5294 8.33421 26.9257 8.21656 26.1207C8.11852 25.4365 8.23617 24.9737 8.8244 23.7059C9.43225 22.3978 9.58911 21.8545 9.68715 20.5263C9.74597 19.6811 9.84401 19.339 10.0793 19.0774C10.3342 18.7957 10.5499 18.695 11.1577 18.6146C12.1577 18.4737 12.8048 18.2121 13.3146 17.709C13.7656 17.2864 13.9617 16.8638 13.9813 16.2399L14.0009 15.7771L13.746 15.4954C12.8244 14.4087 0.0596957 0 0.000872166 0C-0.0187357 0 0.29499 0.382353 0.667539 0.865325ZM6.68715 29.4814C6.90283 29.0991 6.78519 28.6161 6.43225 28.3746C6.09891 28.1533 5.58911 28.2539 5.58911 28.5557C5.58911 28.6362 5.62832 28.7167 5.74597 28.757C5.92244 28.8576 5.94205 28.9582 5.80479 29.1796C5.66754 29.4009 5.66754 29.6022 5.84401 29.743C6.11852 29.9644 6.49107 29.8437 6.68715 29.4814Z" fill="#FF1F76"/>
<path fill-rule="evenodd" clip-rule="evenodd" d="M14.6281 18.8964C14.1575 19.0372 13.7065 19.5604 13.5693 20.0837C13.4908 20.4056 13.5301 20.9892 13.6673 21.1704C13.883 21.4521 14.0791 21.5326 14.6281 21.5326C15.7065 21.5326 16.6281 21.0496 16.7261 20.466C16.8242 19.983 16.4124 19.319 15.8438 19.0171C15.5497 18.8561 14.9418 18.7957 14.6281 18.8964ZM15.883 19.9026C16.0399 19.6611 15.981 19.3995 15.6869 19.2183C15.1575 18.8762 14.3536 19.158 14.3536 19.6812C14.3536 19.9428 14.7653 20.2245 15.1575 20.2245C15.4124 20.2245 15.7653 20.0635 15.883 19.9026Z" fill="#FF1F76"/>
</g>
<defs>
<clipPath id="clip0_3598_834">
<rect width="33" height="39" fill="white"/>
</clipPath>
</defs>
</svg>
