<svg width="33" height="39" viewBox="0 0 33 39" fill="none" xmlns="http://www.w3.org/2000/svg">
<g clip-path="url(#clip0_3636_1034)">
<path d="M12.9413 8.87456C12.5295 8.81419 12.5099 8.79407 12.706 8.77394C13.0785 8.71357 13.9413 8.79407 14.5491 8.93493C15.9609 9.27704 17.2354 10.1625 18.5883 11.712L18.9413 12.1346L19.4511 12.0541C21.6275 11.6919 23.8628 11.9736 25.7256 12.8591C26.2354 13.1006 27.0393 13.5835 27.1374 13.7043C27.1766 13.7445 27.2354 14.0061 27.2746 14.2677C27.4119 15.2136 27.353 15.9179 27.0589 16.4612C26.9021 16.7631 26.9021 16.8436 27.0001 17.1052C27.0785 17.3064 27.3138 17.4473 27.5295 17.4473C28.0001 17.4473 28.4903 16.6826 28.7256 15.616L28.8236 15.1934L29.0001 15.3947C30.0001 16.5417 30.7844 18.1315 30.9021 19.2585L30.9413 19.5603L30.7648 19.2987C30.4707 18.8359 30.1962 18.534 29.8236 18.2724C29.157 17.8095 28.4511 17.6687 26.5883 17.5681C24.9021 17.4674 23.9413 17.3266 23.0001 17.0046C21.3923 16.4612 20.5687 15.7569 18.6668 13.1609C17.8236 12.0139 17.2942 11.39 16.7648 10.8668C15.6079 9.71976 14.4511 9.11605 12.9413 8.87456Z" fill="black"/>
<path d="M27.5491 11.4303C27.5883 10.6656 27.6863 10.1625 27.902 9.69965C27.9805 9.51853 28.0589 9.35754 28.0785 9.35754C28.0981 9.35754 28.0589 9.49841 28.0001 9.6594C27.8432 10.1021 27.8236 10.726 27.9216 11.4303C28.0589 12.3359 28.1177 12.4566 29.0589 13.4427C29.4903 13.9055 30.0001 14.4891 30.1961 14.7306L30.5295 15.1733L30.1961 14.8514C29.7844 14.4489 28.8432 13.6842 28.6275 13.5836C28.4903 13.5031 28.4706 13.5031 28.3726 13.6037C28.2942 13.6842 28.2746 13.8049 28.2746 14.3885C28.255 15.2941 28.1373 15.8575 27.8432 16.4411C27.6863 16.743 27.6667 16.6826 27.804 16.3405C27.902 16.0789 27.9216 15.9582 27.9216 15.0928C27.9216 13.3421 27.7255 12.9195 26.5295 12.2151C26.2354 12.034 25.7255 11.7724 25.4314 11.6315C25.1177 11.4907 24.8824 11.3699 24.902 11.3699C24.9412 11.3297 26.0981 11.6718 26.5491 11.873C27.2354 12.1548 27.353 12.1749 27.4314 12.1548C27.4903 12.0944 27.5295 11.9334 27.5491 11.4303Z" fill="black"/>
<path d="M13.745 14.4288C12.9215 13.2616 12.3921 11.4505 12.5097 10.1022L12.5489 9.67957L12.745 9.71981C13.098 9.78018 13.7058 10.0217 13.9999 10.2028C14.7842 10.6858 15.1372 11.3498 15.4705 13C15.5686 13.483 15.7058 14.0464 15.7646 14.2276C15.8627 14.5294 16.2352 15.2337 16.5489 15.6765C16.7646 15.9985 16.6274 16.1594 16.1372 16.1192C15.3921 16.0387 14.3921 15.3344 13.745 14.4288Z" fill="black"/>
<path d="M26.5491 23.1827C22.6667 21.5728 21.2942 20.1843 21.2942 17.8298C21.2942 17.4877 21.3138 17.2059 21.3138 17.2059C21.3334 17.2059 21.4707 17.3267 21.6471 17.4675C22.4314 18.1115 23.3138 18.3932 25.7648 18.7555C27.1962 18.9768 28.0197 19.1378 28.7648 19.3994C31.1373 20.2044 32.6079 21.8545 32.9609 24.0883C33.0589 24.7322 33.0001 25.9598 32.8432 26.6038C32.706 27.1069 32.3138 28.0326 32.2158 28.0527C32.1962 28.0527 32.1569 27.9521 32.1569 27.7911C32.1177 26.9459 31.706 26.1409 31.0197 25.5171C30.1962 24.7926 29.1373 24.2493 26.5491 23.1827Z" fill="black"/>
<path d="M23.8039 23.8468C23.7647 23.5449 23.6666 23.1626 23.6078 23.0016L23.5098 22.6997L23.6862 22.9211C23.9411 23.2229 24.1372 23.5852 24.3137 24.0883C24.4509 24.4706 24.4509 24.5913 24.4509 25.2152C24.4509 25.8189 24.4313 25.9598 24.3137 26.3019C24.1176 26.8452 23.8823 27.2276 23.4902 27.6502C22.7843 28.3948 21.8627 28.7972 20.549 28.9783C20.3137 28.9985 19.647 29.0588 19.0588 29.0991C17.5882 29.1796 16.6078 29.3406 15.7255 29.6626C15.6078 29.7028 15.4902 29.7431 15.4706 29.7229C15.4313 29.6827 16.0392 29.3205 16.5294 29.079C17.2157 28.7369 17.9215 28.5557 19.4706 28.274C20.2353 28.1533 21.0196 27.9923 21.2157 27.9118C23.1568 27.2879 24.1176 25.7384 23.8039 23.8468Z" fill="black"/>
<path d="M25.5881 27.0867C25.0783 25.9396 24.9607 24.8529 25.2352 23.8266C25.2744 23.726 25.3136 23.6254 25.3528 23.6254C25.392 23.6254 25.5097 23.6857 25.6273 23.7662C25.8626 23.9272 26.3528 24.209 27.6077 24.9133C29.196 25.7987 30.0979 26.483 30.7254 27.2678C31.2744 27.952 31.6077 28.7368 31.7646 29.7028C31.8626 30.2461 31.8038 31.5542 31.6666 32.0975C31.2352 33.808 30.2548 35.1764 28.8234 35.9613C28.6077 36.082 28.4313 36.1625 28.4117 36.1625C28.392 36.1625 28.4705 35.9613 28.5881 35.7198C29.0587 34.6935 29.1175 33.7074 28.7646 32.6006C28.5489 31.9164 28.0979 31.0913 27.196 29.7028C26.1175 28.0929 25.8626 27.6703 25.5881 27.0867Z" fill="black"/>
<path d="M10.9804 33.2446C12.4313 31.9969 14.2157 31.1115 15.8627 30.8298C16.5686 30.709 17.7451 30.7493 18.3921 30.9304C19.4313 31.2121 20.3725 31.8158 20.8627 32.5604C21.3333 33.2849 21.549 33.9087 21.7647 35.2973C21.8431 35.8406 21.9411 36.4041 21.9608 36.5248C22.1176 37.2493 22.4313 37.8127 22.8235 38.1146C23.4313 38.5774 24.4902 38.5976 25.5294 38.1951C25.7059 38.1347 25.8627 38.0743 25.8627 38.0945C25.9019 38.1347 25.3725 38.4969 25.0196 38.6781C24.5294 38.9397 24.1372 39.0202 23.6078 39.0202C22.6666 39.0202 21.8627 38.5171 21.2157 37.5109C21.0784 37.3096 20.8039 36.726 20.5686 36.1827C19.8823 34.5527 19.5294 34.0697 18.7255 33.5264C18.0196 33.0635 17.1176 32.9629 16.4313 33.305C15.5294 33.7477 15.2941 34.935 15.9215 35.6595C16.1764 35.9613 16.647 36.2028 17.0392 36.2632C17.7647 36.3638 18.3921 35.7802 18.3921 35.0356C18.3921 34.5527 18.2157 34.2709 17.7451 34.0496C17.1176 33.7678 16.4313 34.0898 16.451 34.7137C16.451 34.9753 16.5686 35.1363 16.8235 35.257C16.9804 35.3375 16.9804 35.3375 16.8627 35.3174C16.2941 35.1966 16.1568 34.4722 16.6078 34.0093C17.1568 33.4459 18.3137 33.6873 18.7059 34.4722C18.8627 34.7942 18.8823 35.4381 18.7451 35.8406C18.4117 36.726 17.4706 37.1889 16.5098 36.9273C15.8627 36.7462 15.5882 36.5651 14.8039 35.74C13.4313 34.2911 12.9019 34.0093 10.9412 33.7075L10.5686 33.6471L10.9804 33.2446Z" fill="black"/>
<path fill-rule="evenodd" clip-rule="evenodd" d="M0.666806 0.865325C5.23543 6.56037 12.2747 15.4149 12.6276 15.8978C12.9217 16.3003 12.8041 16.6827 12.3139 16.9644C12.0394 17.1254 11.4707 17.2864 11.1962 17.2864C10.8825 17.2864 10.5099 17.1254 10.255 16.8638C10.0786 16.6827 9.31387 15.5356 7.58838 12.7786C6.27465 10.6656 5.157 8.91486 5.1374 8.89474C5.05896 8.85449 5.05896 8.85449 7.45112 13.2415C8.96092 15.9985 9.45112 16.9845 9.45112 17.1053C9.45112 17.3669 9.37269 17.5077 9.05896 17.87C8.52955 18.4737 8.29426 19.1579 8.11779 20.5867C7.92171 22.1765 7.3923 23.3034 5.88249 25.2152C5.00014 26.3421 4.86289 26.5433 4.6472 27.0062C4.37269 27.5697 4.29426 27.8916 4.25504 28.6161C4.21583 29.3808 4.29426 29.8638 4.50994 30.5882C4.70602 31.2322 4.92171 31.6548 5.45112 32.4799C5.9021 33.2043 6.17661 33.7477 6.17661 33.9489C6.17661 34.1099 6.21583 34.1099 6.92171 33.9489C8.60798 33.5464 10.0001 32.8622 10.7648 32.017C11.2354 31.4938 11.3531 31.2121 11.3531 30.4876C11.3531 30.0248 11.3335 29.9241 11.2158 29.6424C11.0197 29.1997 10.6472 28.8375 9.84328 28.274C8.78445 27.5294 8.33347 26.9257 8.21583 26.1207C8.11779 25.4365 8.23543 24.9737 8.82367 23.7059C9.43151 22.3978 9.58838 21.8545 9.68642 20.5263C9.74524 19.6811 9.84328 19.339 10.0786 19.0774C10.3335 18.7957 10.5492 18.695 11.157 18.6146C12.157 18.4737 12.8041 18.2121 13.3139 17.709C13.7648 17.2864 13.9609 16.8638 13.9805 16.2399L14.0001 15.7771L13.7452 15.4954C12.8237 14.4087 0.0589633 0 0.000139744 0C-0.0194681 0 0.294257 0.382353 0.666806 0.865325ZM6.68641 29.4814C6.9021 29.0991 6.78445 28.6161 6.43151 28.3746C6.09818 28.1533 5.58838 28.2539 5.58838 28.5557C5.58838 28.6362 5.62759 28.7167 5.74524 28.757C5.92171 28.8576 5.94132 28.9582 5.80406 29.1796C5.66681 29.4009 5.66681 29.6022 5.84328 29.743C6.11779 29.9644 6.49034 29.8437 6.68641 29.4814Z" fill="black"/>
<path fill-rule="evenodd" clip-rule="evenodd" d="M14.6274 18.8962C14.1568 19.0371 13.7058 19.5603 13.5685 20.0835C13.4901 20.4055 13.5293 20.9891 13.6666 21.1702C13.8823 21.452 14.0783 21.5325 14.6274 21.5325C15.7058 21.5325 16.6274 21.0495 16.7254 20.4659C16.8234 19.9829 16.4117 19.3188 15.843 19.017C15.5489 18.856 14.9411 18.7956 14.6274 18.8962ZM15.8823 19.9024C16.0391 19.6609 15.9803 19.3993 15.6862 19.2182C15.1568 18.8761 14.3529 19.1578 14.3529 19.6811C14.3529 19.9427 14.7646 20.2244 15.1568 20.2244C15.4117 20.2244 15.7646 20.0634 15.8823 19.9024Z" fill="black"/>
</g>
<defs>
<clipPath id="clip0_3636_1034">
<rect width="33" height="39" fill="white"/>
</clipPath>
</defs>
</svg>
