<svg width="18" height="15" viewBox="0 0 18 15" fill="none" xmlns="http://www.w3.org/2000/svg">
<path d="M15.0886 2.23299L15.0125 2.11565L14.8867 2.05477C13.8622 1.55921 12.7779 1.20704 11.6626 1.00779L11.3028 0.94353L11.1324 1.26675C11.0396 1.44257 10.9521 1.62121 10.87 1.80243C9.93531 1.68721 8.99069 1.68725 8.05606 1.80257C7.97272 1.62046 7.88389 1.44103 7.78968 1.26454L7.61856 0.943984L7.26083 1.00776C6.14398 1.20688 5.05829 1.55973 4.03277 2.0567L3.9058 2.11823L3.82972 2.23707C1.80658 5.39725 1.25443 8.49272 1.52917 11.5341L1.54881 11.7514L1.72156 11.8848C3.06939 12.9256 4.38075 13.5603 5.66916 13.9748L6.01944 14.0875L6.23119 13.7866C6.55461 13.327 6.84036 12.8405 7.08553 12.3323L7.1069 12.288C8.6656 12.7149 10.2694 12.7166 11.8195 12.2922L11.8393 12.3333C12.0844 12.8418 12.3702 13.3283 12.6938 13.7879L12.9056 14.0886L13.2557 13.976C14.5452 13.5612 15.8579 12.9262 17.2059 11.8841L17.3783 11.7508L17.398 11.5338C17.719 8.00766 16.8434 4.94135 15.0886 2.23299ZM7.81994 8.08846L7.81988 8.08845L7.81989 8.09649C7.82077 8.77219 7.37383 9.18117 6.97144 9.18117C6.57962 9.18117 6.123 8.7694 6.123 8.09583C6.123 7.41824 6.56988 7.00902 6.97144 7.00902C7.379 7.00902 7.82976 7.42309 7.81994 8.08846ZM12.8028 8.08829L12.8028 8.08829V8.09583C12.8028 8.77285 12.3564 9.18117 11.9546 9.18117C11.5626 9.18117 11.1062 8.76947 11.1062 8.09583C11.1062 7.41825 11.5531 7.00902 11.9546 7.00902C12.3622 7.00902 12.8129 7.42307 12.8028 8.08829Z" stroke="black"/>
</svg>
