<svg width="21" height="18" viewBox="0 0 21 18" fill="none" xmlns="http://www.w3.org/2000/svg">
<path d="M18.2128 4.79486L17.7075 4.12108L17.3706 4.37375V4.79486H18.2128ZM20.2575 2.67153L20.9583 3.13871L22.5691 0.722515L19.9155 1.9019L20.2575 2.67153ZM17.8983 3.30066L17.4698 2.57558L17.9781 4.13908L17.8983 3.30066ZM19.707 1.02005L20.5092 1.27674L21.1904 -0.852174L19.2737 0.297856L19.707 1.02005ZM17.1119 2.04239L16.502 2.62323L16.8283 2.96592L17.2908 2.86539L17.1119 2.04239ZM10.0734 5.8172L10.0251 6.65803L11.1682 6.72372L10.8905 5.61293L10.0734 5.8172ZM1.54078 1.4919L2.19032 0.955775L1.43172 0.0367003L0.818587 1.05858L1.54078 1.4919ZM2.83837 6.99683L2.78891 7.83759L5.94151 8.02304L3.29993 6.29234L2.83837 6.99683ZM0.950969 6.48565L1.36883 5.7544L0.108752 5.03436V6.48565H0.950969ZM4.25392 10.575L4.45819 11.3921L4.4257 9.75051L4.25392 10.575ZM2.40584 10.6537L2.52495 9.81992L1.2079 9.63177L1.60128 10.9027L2.40584 10.6537ZM6.25929 13.5241L6.77636 14.1889L8.64747 12.7336L6.27759 12.6821L6.25929 13.5241ZM0.164551 15.2149L0.269015 14.3792L-0.295525 15.9203L0.164551 15.2149ZM18.7182 5.46863C19.568 4.83124 20.3465 4.05633 20.9583 3.13871L19.5568 2.20435C19.0675 2.93821 18.4305 3.57884 17.7075 4.12108L18.7182 5.46863ZM19.9155 1.9019C19.2816 2.18362 18.5441 2.39313 17.8184 2.46224L17.9781 4.13908C18.9039 4.05091 19.8179 3.78857 20.5996 3.44116L19.9155 1.9019ZM18.3267 4.02575C19.3714 3.40844 20.1323 2.45437 20.5092 1.27674L18.9049 0.763363C18.6526 1.55178 18.1553 2.17054 17.4698 2.57558L18.3267 4.02575ZM19.2737 0.297856C18.5685 0.720976 17.7505 1.04168 16.9329 1.2194L17.2908 2.86539C18.282 2.6499 19.2727 2.26283 20.1403 1.74225L19.2737 0.297856ZM17.7217 1.46155C16.7793 0.471993 15.4985 -0.0974125 14.0841 -0.0974125V1.58702C15.029 1.58702 15.8716 1.96132 16.502 2.62323L17.7217 1.46155ZM14.0841 -0.0974125C11.3384 -0.0974125 9.11323 2.12774 9.11323 4.8735H10.7977C10.7977 3.05803 12.2687 1.58702 14.0841 1.58702V-0.0974125ZM9.11323 4.8735C9.11323 5.25902 9.16152 5.64216 9.25634 6.02147L10.8905 5.61293C10.828 5.36311 10.7977 5.11711 10.7977 4.8735H9.11323ZM10.1217 4.97637C6.94303 4.79368 4.09101 3.25854 2.19032 0.955775L0.891245 2.02803C3.07992 4.6797 6.36197 6.4475 10.0251 6.65803L10.1217 4.97637ZM0.818587 1.05858C0.381011 1.78788 0.148073 2.64718 0.148073 3.57591H1.83251C1.83251 2.9318 1.99278 2.37555 2.26298 1.92522L0.818587 1.05858ZM0.148073 3.57591C0.148073 5.28121 1.00383 6.80177 2.37681 7.70131L3.29993 6.29234C2.3923 5.69769 1.83251 4.70171 1.83251 3.57591H0.148073ZM2.88783 6.15606C2.30812 6.12196 1.77576 5.98694 1.36883 5.7544L0.533112 7.2169C1.22716 7.6135 2.03171 7.79305 2.78891 7.83759L2.88783 6.15606ZM0.108752 6.48565V6.52497H1.79319V6.48565H0.108752ZM0.108752 6.52497C0.108752 8.94171 1.8165 10.9275 4.08215 11.3995L4.4257 9.75051C2.91654 9.43611 1.79319 8.11897 1.79319 6.52497H0.108752ZM4.04966 9.75796C3.75336 9.83203 3.44072 9.89009 3.19226 9.89009V11.5745C3.65157 11.5745 4.12535 11.4753 4.45819 11.3921L4.04966 9.75796ZM3.19226 9.89009C2.99102 9.89009 2.82481 9.86275 2.52495 9.81992L2.28673 11.4874C2.53736 11.5232 2.843 11.5745 3.19226 11.5745V9.89009ZM1.60128 10.9027C2.22025 12.9024 4.07194 14.319 6.24098 14.3661L6.27759 12.6821C4.82912 12.6506 3.61378 11.7079 3.2104 10.4046L1.60128 10.9027ZM5.74222 12.8593C4.46503 13.8527 2.87535 14.4513 1.14757 14.4513V16.1357C3.27324 16.1357 5.22245 15.3975 6.77636 14.1889L5.74222 12.8593ZM1.14757 14.4513C0.85332 14.4513 0.587997 14.4191 0.269015 14.3792L0.0600866 16.0506C0.370239 16.0894 0.73405 16.1357 1.14757 16.1357V14.4513ZM-0.295525 15.9203C1.65096 17.1898 3.97363 17.9052 6.49521 17.9052V16.2208C4.29829 16.2208 2.29566 15.5992 0.624627 14.5094L-0.295525 15.9203ZM6.49521 17.9052C14.6457 17.9052 19.0551 11.1735 19.0551 5.34535H17.3706C17.3706 10.4485 13.5226 16.2208 6.49521 16.2208V17.9052ZM19.0551 5.34535C19.0551 5.34496 19.0551 5.34458 19.0551 5.3442C19.0551 5.34381 19.0551 5.34343 19.0551 5.34305C19.0551 5.34266 19.0551 5.34228 19.0551 5.3419C19.0551 5.34151 19.0551 5.34113 19.0551 5.34075C19.0551 5.34036 19.0551 5.33998 19.0551 5.3396C19.0551 5.33922 19.0551 5.33883 19.0551 5.33845C19.0551 5.33807 19.0551 5.33769 19.0551 5.33731C19.0551 5.33692 19.0551 5.33654 19.0551 5.33616C19.0551 5.33578 19.0551 5.3354 19.0551 5.33502C19.0551 5.33463 19.0551 5.33425 19.0551 5.33387C19.0551 5.33349 19.0551 5.33311 19.0551 5.33273C19.0551 5.33235 19.0551 5.33197 19.0551 5.33159C19.0551 5.33121 19.0551 5.33083 19.0551 5.33045C19.0551 5.33007 19.0551 5.32969 19.0551 5.32931C19.0551 5.32893 19.0551 5.32855 19.0551 5.32817C19.0551 5.32779 19.0551 5.32741 19.0551 5.32703C19.0551 5.32665 19.0551 5.32627 19.0551 5.32589C19.0551 5.32551 19.0551 5.32513 19.0551 5.32475C19.0551 5.32438 19.0551 5.324 19.0551 5.32362C19.0551 5.32324 19.0551 5.32286 19.0551 5.32248C19.0551 5.32211 19.0551 5.32173 19.0551 5.32135C19.0551 5.32097 19.0551 5.32059 19.0551 5.32022C19.0551 5.31984 19.0551 5.31946 19.0551 5.31908C19.0551 5.31871 19.0551 5.31833 19.0551 5.31795C19.0551 5.31757 19.0551 5.3172 19.0551 5.31682C19.0551 5.31644 19.0551 5.31607 19.0551 5.31569C19.0551 5.31531 19.0551 5.31494 19.0551 5.31456C19.0551 5.31418 19.0551 5.31381 19.0551 5.31343C19.0551 5.31306 19.0551 5.31268 19.0551 5.3123C19.0551 5.31193 19.0551 5.31155 19.0551 5.31118C19.0551 5.3108 19.0551 5.31043 19.0551 5.31005C19.0551 5.30968 19.0551 5.3093 19.0551 5.30893C19.0551 5.30855 19.0551 5.30818 19.0551 5.3078C19.0551 5.30743 19.0551 5.30705 19.0551 5.30668C19.0551 5.3063 19.0551 5.30593 19.0551 5.30555C19.0551 5.30518 19.0551 5.30481 19.0551 5.30443C19.0551 5.30406 19.0551 5.30368 19.0551 5.30331C19.0551 5.30294 19.0551 5.30256 19.0551 5.30219C19.0551 5.30182 19.0551 5.30144 19.0551 5.30107C19.0551 5.3007 19.0551 5.30032 19.0551 5.29995C19.0551 5.29958 19.0551 5.29921 19.0551 5.29883C19.0551 5.29846 19.0551 5.29809 19.0551 5.29772C19.0551 5.29734 19.0551 5.29697 19.0551 5.2966C19.0551 5.29623 19.0551 5.29585 19.0551 5.29548C19.0551 5.29511 19.0551 5.29474 19.0551 5.29437C19.0551 5.294 19.0551 5.29362 19.0551 5.29325C19.0551 5.29288 19.0551 5.29251 19.0551 5.29214C19.0551 5.29177 19.0551 5.2914 19.0551 5.29102C19.0551 5.29065 19.0551 5.29028 19.0551 5.28991C19.0551 5.28954 19.0551 5.28917 19.0551 5.2888C19.0551 5.28843 19.0551 5.28806 19.0551 5.28769C19.0551 5.28732 19.0551 5.28695 19.0551 5.28658C19.0551 5.28621 19.0551 5.28584 19.0551 5.28547C19.0551 5.2851 19.0551 5.28473 19.0551 5.28436C19.0551 5.28399 19.0551 5.28362 19.0551 5.28325C19.0551 5.28288 19.0551 5.28251 19.0551 5.28215C19.0551 5.28178 19.0551 5.28141 19.0551 5.28104C19.0551 5.28067 19.0551 5.2803 19.0551 5.27993C19.0551 5.27956 19.0551 5.2792 19.0551 5.27883C19.0551 5.27846 19.0551 5.27809 19.0551 5.27772C19.0551 5.27735 19.0551 5.27699 19.0551 5.27662C19.0551 5.27625 19.0551 5.27588 19.0551 5.27552C19.0551 5.27515 19.0551 5.27478 19.0551 5.27441C19.0551 5.27405 19.0551 5.27368 19.0551 5.27331C19.0551 5.27294 19.0551 5.27258 19.0551 5.27221C19.0551 5.27184 19.0551 5.27148 19.0551 5.27111C19.0551 5.27074 19.0551 5.27038 19.0551 5.27001C19.0551 5.26964 19.0551 5.26928 19.0551 5.26891C19.0551 5.26854 19.0551 5.26818 19.0551 5.26781C19.0551 5.26745 19.0551 5.26708 19.0551 5.26671C19.0551 5.26635 19.0551 5.26598 19.0551 5.26562C19.0551 5.26525 19.0551 5.26488 19.0551 5.26452C19.0551 5.26415 19.0551 5.26379 19.0551 5.26342C19.0551 5.26306 19.0551 5.26269 19.0551 5.26233C19.0551 5.26196 19.0551 5.2616 19.0551 5.26123C19.0551 5.26087 19.0551 5.2605 19.0551 5.26014C19.0551 5.25977 19.0551 5.25941 19.0551 5.25905C19.0551 5.25868 19.0551 5.25832 19.0551 5.25795C19.0551 5.25759 19.0551 5.25723 19.0551 5.25686C19.0551 5.2565 19.0551 5.25613 19.0551 5.25577C19.0551 5.25541 19.0551 5.25504 19.0551 5.25468C19.0551 5.25432 19.0551 5.25395 19.0551 5.25359C19.0551 5.25323 19.0551 5.25286 19.0551 5.2525C19.0551 5.25214 19.0551 5.25177 19.0551 5.25141C19.0551 5.25105 19.0551 5.25068 19.0551 5.25032C19.0551 5.24996 19.0551 5.2496 19.0551 5.24923C19.0551 5.24887 19.0551 5.24851 19.0551 5.24815C19.0551 5.24778 19.0551 5.24742 19.0551 5.24706C19.0551 5.2467 19.0551 5.24634 19.0551 5.24597C19.0551 5.24561 19.0551 5.24525 19.0551 5.24489C19.0551 5.24453 19.0551 5.24416 19.0551 5.2438C19.0551 5.24344 19.0551 5.24308 19.0551 5.24272C19.0551 5.24236 19.0551 5.242 19.0551 5.24163C19.0551 5.24127 19.0551 5.24091 19.0551 5.24055C19.0551 5.24019 19.0551 5.23983 19.0551 5.23947C19.0551 5.23911 19.0551 5.23875 19.0551 5.23839C19.0551 5.23803 19.0551 5.23767 19.0551 5.23731C19.0551 5.23694 19.0551 5.23658 19.0551 5.23622C19.0551 5.23586 19.0551 5.2355 19.0551 5.23514C19.0551 5.23478 19.0551 5.23442 19.0551 5.23406C19.0551 5.2337 19.0551 5.23334 19.0551 5.23298C19.0551 5.23263 19.0551 5.23227 19.0551 5.23191C19.0551 5.23155 19.0551 5.23119 19.0551 5.23083C19.0551 5.23047 19.0551 5.23011 19.0551 5.22975C19.0551 5.22939 19.0551 5.22903 19.0551 5.22867C19.0551 5.22831 19.0551 5.22796 19.0551 5.2276C19.0551 5.22724 19.0551 5.22688 19.0551 5.22652C19.0551 5.22616 19.0551 5.2258 19.0551 5.22544C19.0551 5.22509 19.0551 5.22473 19.0551 5.22437C19.0551 5.22401 19.0551 5.22365 19.0551 5.2233C19.0551 5.22294 19.0551 5.22258 19.0551 5.22222C19.0551 5.22186 19.0551 5.22151 19.0551 5.22115C19.0551 5.22079 19.0551 5.22043 19.0551 5.22007C19.0551 5.21972 19.0551 5.21936 19.0551 5.219C19.0551 5.21864 19.0551 5.21829 19.0551 5.21793C19.0551 5.21757 19.0551 5.21722 19.0551 5.21686C19.0551 5.2165 19.0551 5.21614 19.0551 5.21579C19.0551 5.21543 19.0551 5.21507 19.0551 5.21472C19.0551 5.21436 19.0551 5.214 19.0551 5.21365C19.0551 5.21329 19.0551 5.21293 19.0551 5.21258C19.0551 5.21222 19.0551 5.21187 19.0551 5.21151C19.0551 5.21115 19.0551 5.2108 19.0551 5.21044C19.0551 5.21008 19.0551 5.20973 19.0551 5.20937C19.0551 5.20902 19.0551 5.20866 19.0551 5.2083C19.0551 5.20795 19.0551 5.20759 19.0551 5.20724C19.0551 5.20688 19.0551 5.20653 19.0551 5.20617C19.0551 5.20582 19.0551 5.20546 19.0551 5.2051C19.0551 5.20475 19.0551 5.20439 19.0551 5.20404C19.0551 5.20368 19.0551 5.20333 19.0551 5.20297C19.0551 5.20262 19.0551 5.20226 19.0551 5.20191C19.0551 5.20155 19.0551 5.2012 19.0551 5.20084C19.0551 5.20049 19.0551 5.20013 19.0551 5.19978C19.0551 5.19943 19.0551 5.19907 19.0551 5.19872C19.0551 5.19836 19.0551 5.19801 19.0551 5.19765C19.0551 5.1973 19.0551 5.19694 19.0551 5.19659C19.0551 5.19624 19.0551 5.19588 19.0551 5.19553C19.0551 5.19517 19.0551 5.19482 19.0551 5.19447C19.0551 5.19411 19.0551 5.19376 19.0551 5.1934C19.0551 5.19305 19.0551 5.1927 19.0551 5.19234C19.0551 5.19199 19.0551 5.19164 19.0551 5.19128C19.0551 5.19093 19.0551 5.19058 19.0551 5.19022C19.0551 5.18987 19.0551 5.18952 19.0551 5.18916C19.0551 5.18881 19.0551 5.18846 19.0551 5.1881C19.0551 5.18775 19.0551 5.1874 19.0551 5.18704C19.0551 5.18669 19.0551 5.18634 19.0551 5.18599C19.0551 5.18563 19.0551 5.18528 19.0551 5.18493C19.0551 5.18457 19.0551 5.18422 19.0551 5.18387C19.0551 5.18352 19.0551 5.18316 19.0551 5.18281C19.0551 5.18246 19.0551 5.18211 19.0551 5.18176C19.0551 5.1814 19.0551 5.18105 19.0551 5.1807C19.0551 5.18035 19.0551 5.17999 19.0551 5.17964C19.0551 5.17929 19.0551 5.17894 19.0551 5.17859C19.0551 5.17823 19.0551 5.17788 19.0551 5.17753C19.0551 5.17718 19.0551 5.17683 19.0551 5.17648C19.0551 5.17612 19.0551 5.17577 19.0551 5.17542C19.0551 5.17507 19.0551 5.17472 19.0551 5.17437C19.0551 5.17401 19.0551 5.17366 19.0551 5.17331C19.0551 5.17296 19.0551 5.17261 19.0551 5.17226C19.0551 5.17191 19.0551 5.17156 19.0551 5.1712C19.0551 5.17085 19.0551 5.1705 19.0551 5.17015C19.0551 5.1698 19.0551 5.16945 19.0551 5.1691C19.0551 5.16875 19.0551 5.1684 19.0551 5.16805C19.0551 5.1677 19.0551 5.16734 19.0551 5.16699C19.0551 5.16664 19.0551 5.16629 19.0551 5.16594C19.0551 5.16559 19.0551 5.16524 19.0551 5.16489C19.0551 5.16454 19.0551 5.16419 19.0551 5.16384C19.0551 5.16349 19.0551 5.16314 19.0551 5.16279C19.0551 5.16244 19.0551 5.16209 19.0551 5.16174C19.0551 5.16139 19.0551 5.16104 19.0551 5.16069C19.0551 5.16034 19.0551 5.15999 19.0551 5.15964C19.0551 5.15929 19.0551 5.15894 19.0551 5.15859C19.0551 5.15824 19.0551 5.15789 19.0551 5.15754C19.0551 5.15719 19.0551 5.15684 19.0551 5.15649C19.0551 5.15614 19.0551 5.15579 19.0551 5.15544C19.0551 5.15509 19.0551 5.15474 19.0551 5.15439C19.0551 5.15404 19.0551 5.15369 19.0551 5.15334C19.0551 5.15299 19.0551 5.15265 19.0551 5.1523C19.0551 5.15195 19.0551 5.1516 19.0551 5.15125C19.0551 5.1509 19.0551 5.15055 19.0551 5.1502C19.0551 5.14985 19.0551 5.1495 19.0551 5.14915C19.0551 5.14881 19.0551 5.14846 19.0551 5.14811C19.0551 5.14776 19.0551 5.14741 19.0551 5.14706C19.0551 5.14671 19.0551 5.14636 19.0551 5.14601C19.0551 5.14567 19.0551 5.14532 19.0551 5.14497C19.0551 5.14462 19.0551 5.14427 19.0551 5.14392C19.0551 5.14357 19.0551 5.14323 19.0551 5.14288C19.0551 5.14253 19.0551 5.14218 19.0551 5.14183C19.0551 5.14148 19.0551 5.14114 19.0551 5.14079C19.0551 5.14044 19.0551 5.14009 19.0551 5.13974C19.0551 5.13939 19.0551 5.13905 19.0551 5.1387C19.0551 5.13835 19.0551 5.138 19.0551 5.13765C19.0551 5.13731 19.0551 5.13696 19.0551 5.13661C19.0551 5.13626 19.0551 5.13591 19.0551 5.13557C19.0551 5.13522 19.0551 5.13487 19.0551 5.13452C19.0551 5.13417 19.0551 5.13383 19.0551 5.13348C19.0551 5.13313 19.0551 5.13278 19.0551 5.13244C19.0551 5.13209 19.0551 5.13174 19.0551 5.13139C19.0551 5.13104 19.0551 5.1307 19.0551 5.13035C19.0551 5.13 19.0551 5.12965 19.0551 5.12931C19.0551 5.12896 19.0551 5.12861 19.0551 5.12826C19.0551 5.12792 19.0551 5.12757 19.0551 5.12722C19.0551 5.12687 19.0551 5.12653 19.0551 5.12618C19.0551 5.12583 19.0551 5.12549 19.0551 5.12514C19.0551 5.12479 19.0551 5.12444 19.0551 5.1241C19.0551 5.12375 19.0551 5.1234 19.0551 5.12306C19.0551 5.12271 19.0551 5.12236 19.0551 5.12201C19.0551 5.12167 19.0551 5.12132 19.0551 5.12097C19.0551 5.12063 19.0551 5.12028 19.0551 5.11993C19.0551 5.11959 19.0551 5.11924 19.0551 5.11889C19.0551 5.11854 19.0551 5.1182 19.0551 5.11785C19.0551 5.1175 19.0551 5.11716 19.0551 5.11681C19.0551 5.11646 19.0551 5.11612 19.0551 5.11577C19.0551 5.11542 19.0551 5.11508 19.0551 5.11473C19.0551 5.11438 19.0551 5.11404 19.0551 5.11369C19.0551 5.11334 19.0551 5.113 19.0551 5.11265C19.0551 5.1123 19.0551 5.11196 19.0551 5.11161C19.0551 5.11126 19.0551 5.11092 19.0551 5.11057C19.0551 5.11022 19.0551 5.10988 19.0551 5.10953C19.0551 5.10919 19.0551 5.10884 19.0551 5.10849C19.0551 5.10815 19.0551 5.1078 19.0551 5.10745C19.0551 5.10711 19.0551 5.10676 19.0551 5.10641C19.0551 5.10607 19.0551 5.10572 19.0551 5.10538C19.0551 5.10503 19.0551 5.10468 19.0551 5.10434C19.0551 5.10399 19.0551 5.10364 19.0551 5.1033C19.0551 5.10295 19.0551 5.10261 19.0551 5.10226C19.0551 5.10191 19.0551 5.10157 19.0551 5.10122C19.0551 5.10087 19.0551 5.10053 19.0551 5.10018C19.0551 5.09984 19.0551 5.09949 19.0551 5.09914C19.0551 5.0988 19.0551 5.09845 19.0551 5.09811C19.0551 5.09776 19.0551 5.09741 19.0551 5.09707C19.0551 5.09672 19.0551 5.09638 19.0551 5.09603C19.0551 5.09568 19.0551 5.09534 19.0551 5.09499C19.0551 5.09465 19.0551 5.0943 19.0551 5.09395C19.0551 5.09361 19.0551 5.09326 19.0551 5.09292C19.0551 5.09257 19.0551 5.09223 19.0551 5.09188C19.0551 5.09153 19.0551 5.09119 19.0551 5.09084C19.0551 5.0905 19.0551 5.09015 19.0551 5.0898C19.0551 5.08946 19.0551 5.08911 19.0551 5.08877C19.0551 5.08842 19.0551 5.08808 19.0551 5.08773C19.0551 5.08738 19.0551 5.08704 19.0551 5.08669C19.0551 5.08635 19.0551 5.086 19.0551 5.08566C19.0551 5.08531 19.0551 5.08496 19.0551 5.08462C19.0551 5.08427 19.0551 5.08393 19.0551 5.08358C19.0551 5.08324 19.0551 5.08289 19.0551 5.08254C19.0551 5.0822 19.0551 5.08185 19.0551 5.08151C19.0551 5.08116 19.0551 5.08082 19.0551 5.08047C19.0551 5.08012 19.0551 5.07978 19.0551 5.07943C19.0551 5.07909 19.0551 5.07874 19.0551 5.0784C19.0551 5.07805 19.0551 5.07771 19.0551 5.07736C19.0551 5.07701 19.0551 5.07667 19.0551 5.07632C19.0551 5.07598 19.0551 5.07563 19.0551 5.07529C19.0551 5.07494 19.0551 5.07459 19.0551 5.07425C19.0551 5.0739 19.0551 5.07356 19.0551 5.07321C19.0551 5.07287 19.0551 5.07252 19.0551 5.07218C19.0551 5.07183 19.0551 5.07148 19.0551 5.07114C19.0551 5.07079 19.0551 5.07045 19.0551 5.0701C19.0551 5.06976 19.0551 5.06941 19.0551 5.06907C19.0551 5.06872 19.0551 5.06837 19.0551 5.06803C19.0551 5.06768 19.0551 5.06734 19.0551 5.06699C19.0551 5.06665 19.0551 5.0663 19.0551 5.06595C19.0551 5.06561 19.0551 5.06526 19.0551 5.06492C19.0551 5.06457 19.0551 5.06423 19.0551 5.06388C19.0551 5.06354 19.0551 5.06319 19.0551 5.06284C19.0551 5.0625 19.0551 5.06215 19.0551 5.06181C19.0551 5.06146 19.0551 5.06112 19.0551 5.06077C19.0551 5.06042 19.0551 5.06008 19.0551 5.05973C19.0551 5.05939 19.0551 5.05904 19.0551 5.0587C19.0551 5.05835 19.0551 5.05801 19.0551 5.05766C19.0551 5.05731 19.0551 5.05697 19.0551 5.05662C19.0551 5.05628 19.0551 5.05593 19.0551 5.05559C19.0551 5.05524 19.0551 5.05489 19.0551 5.05455C19.0551 5.0542 19.0551 5.05386 19.0551 5.05351C19.0551 5.05317 19.0551 5.05282 19.0551 5.05247C19.0551 5.05213 19.0551 5.05178 19.0551 5.05144C19.0551 5.05109 19.0551 5.05074 19.0551 5.0504C19.0551 5.05005 19.0551 5.04971 19.0551 5.04936C19.0551 5.04902 19.0551 5.04867 19.0551 5.04832C19.0551 5.04798 19.0551 5.04763 19.0551 5.04729C19.0551 5.04694 19.0551 5.04659 19.0551 5.04625C19.0551 5.0459 19.0551 5.04556 19.0551 5.04521C19.0551 5.04487 19.0551 5.04452 19.0551 5.04417C19.0551 5.04383 19.0551 5.04348 19.0551 5.04314C19.0551 5.04279 19.0551 5.04244 19.0551 5.0421C19.0551 5.04175 19.0551 5.04141 19.0551 5.04106C19.0551 5.04071 19.0551 5.04037 19.0551 5.04002C19.0551 5.03967 19.0551 5.03933 19.0551 5.03898C19.0551 5.03864 19.0551 5.03829 19.0551 5.03794C19.0551 5.0376 19.0551 5.03725 19.0551 5.03691C19.0551 5.03656 19.0551 5.03621 19.0551 5.03587C19.0551 5.03552 19.0551 5.03517 19.0551 5.03483C19.0551 5.03448 19.0551 5.03414 19.0551 5.03379C19.0551 5.03344 19.0551 5.0331 19.0551 5.03275C19.0551 5.0324 19.0551 5.03206 19.0551 5.03171C19.0551 5.03136 19.0551 5.03102 19.0551 5.03067C19.0551 5.03033 19.0551 5.02998 19.0551 5.02963C19.0551 5.02929 19.0551 5.02894 19.0551 5.02859C19.0551 5.02825 19.0551 5.0279 19.0551 5.02755C19.0551 5.02721 19.0551 5.02686 19.0551 5.02651C19.0551 5.02617 19.0551 5.02582 19.0551 5.02547C19.0551 5.02513 19.0551 5.02478 19.0551 5.02443C19.0551 5.02409 19.0551 5.02374 19.0551 5.02339C19.0551 5.02305 19.0551 5.0227 19.0551 5.02235C19.0551 5.02201 19.0551 5.02166 19.0551 5.02131C19.0551 5.02097 19.0551 5.02062 19.0551 5.02027C19.0551 5.01992 19.0551 5.01958 19.0551 5.01923C19.0551 5.01888 19.0551 5.01854 19.0551 5.01819C19.0551 5.01784 19.0551 5.0175 19.0551 5.01715C19.0551 5.0168 19.0551 5.01645 19.0551 5.01611C19.0551 5.01576 19.0551 5.01541 19.0551 5.01507C19.0551 5.01472 19.0551 5.01437 19.0551 5.01402C19.0551 5.01368 19.0551 5.01333 19.0551 5.01298C19.0551 5.01263 19.0551 5.01229 19.0551 5.01194C19.0551 5.01159 19.0551 5.01124 19.0551 5.0109C19.0551 5.01055 19.0551 5.0102 19.0551 5.00985C19.0551 5.00951 19.0551 5.00916 19.0551 5.00881C19.0551 5.00846 19.0551 5.00812 19.0551 5.00777C19.0551 5.00742 19.0551 5.00707 19.0551 5.00673C19.0551 5.00638 19.0551 5.00603 19.0551 5.00568C19.0551 5.00533 19.0551 5.00499 19.0551 5.00464C19.0551 5.00429 19.0551 5.00394 19.0551 5.00359C19.0551 5.00325 19.0551 5.0029 19.0551 5.00255C19.0551 5.0022 19.0551 5.00185 19.0551 5.00151C19.0551 5.00116 19.0551 5.00081 19.0551 5.00046C19.0551 5.00011 19.0551 4.99976 19.0551 4.99942C19.0551 4.99907 19.0551 4.99872 19.0551 4.99837C19.0551 4.99802 19.0551 4.99767 19.0551 4.99733C19.0551 4.99698 19.0551 4.99663 19.0551 4.99628C19.0551 4.99593 19.0551 4.99558 19.0551 4.99523C19.0551 4.99489 19.0551 4.99454 19.0551 4.99419C19.0551 4.99384 19.0551 4.99349 19.0551 4.99314C19.0551 4.99279 19.0551 4.99244 19.0551 4.9921C19.0551 4.99175 19.0551 4.9914 19.0551 4.99105C19.0551 4.9907 19.0551 4.99035 19.0551 4.99C19.0551 4.98965 19.0551 4.9893 19.0551 4.98895C19.0551 4.98861 19.0551 4.98826 19.0551 4.98791C19.0551 4.98756 19.0551 4.98721 19.0551 4.98686C19.0551 4.98651 19.0551 4.98616 19.0551 4.98581C19.0551 4.98546 19.0551 4.98511 19.0551 4.98476C19.0551 4.98441 19.0551 4.98406 19.0551 4.98371C19.0551 4.98336 19.0551 4.98301 19.0551 4.98266C19.0551 4.98232 19.0551 4.98197 19.0551 4.98162C19.0551 4.98127 19.0551 4.98092 19.0551 4.98057C19.0551 4.98022 19.0551 4.97987 19.0551 4.97952C19.0551 4.97917 19.0551 4.97882 19.0551 4.97847C19.0551 4.97812 19.0551 4.97777 19.0551 4.97742C19.0551 4.97706 19.0551 4.97671 19.0551 4.97636C19.0551 4.97601 19.0551 4.97566 19.0551 4.97531C19.0551 4.97496 19.0551 4.97461 19.0551 4.97426C19.0551 4.97391 19.0551 4.97356 19.0551 4.97321C19.0551 4.97286 19.0551 4.97251 19.0551 4.97216C19.0551 4.97181 19.0551 4.97146 19.0551 4.97111C19.0551 4.97075 19.0551 4.9704 19.0551 4.97005C19.0551 4.9697 19.0551 4.96935 19.0551 4.969C19.0551 4.96865 19.0551 4.9683 19.0551 4.96795C19.0551 4.96759 19.0551 4.96724 19.0551 4.96689C19.0551 4.96654 19.0551 4.96619 19.0551 4.96584C19.0551 4.96549 19.0551 4.96513 19.0551 4.96478C19.0551 4.96443 19.0551 4.96408 19.0551 4.96373C19.0551 4.96338 19.0551 4.96302 19.0551 4.96267C19.0551 4.96232 19.0551 4.96197 19.0551 4.96162C19.0551 4.96127 19.0551 4.96091 19.0551 4.96056C19.0551 4.96021 19.0551 4.95986 19.0551 4.95951C19.0551 4.95915 19.0551 4.9588 19.0551 4.95845C19.0551 4.9581 19.0551 4.95774 19.0551 4.95739C19.0551 4.95704 19.0551 4.95669 19.0551 4.95633C19.0551 4.95598 19.0551 4.95563 19.0551 4.95528C19.0551 4.95492 19.0551 4.95457 19.0551 4.95422C19.0551 4.95386 19.0551 4.95351 19.0551 4.95316C19.0551 4.95281 19.0551 4.95245 19.0551 4.9521C19.0551 4.95175 19.0551 4.95139 19.0551 4.95104C19.0551 4.95069 19.0551 4.95033 19.0551 4.94998C19.0551 4.94963 19.0551 4.94927 19.0551 4.94892C19.0551 4.94857 19.0551 4.94821 19.0551 4.94786C19.0551 4.94751 19.0551 4.94715 19.0551 4.9468C19.0551 4.94645 19.0551 4.94609 19.0551 4.94574C19.0551 4.94538 19.0551 4.94503 19.0551 4.94468C19.0551 4.94432 19.0551 4.94397 19.0551 4.94361C19.0551 4.94326 19.0551 4.9429 19.0551 4.94255C19.0551 4.9422 19.0551 4.94184 19.0551 4.94149C19.0551 4.94113 19.0551 4.94078 19.0551 4.94042C19.0551 4.94007 19.0551 4.93971 19.0551 4.93936C19.0551 4.93901 19.0551 4.93865 19.0551 4.9383C19.0551 4.93794 19.0551 4.93759 19.0551 4.93723C19.0551 4.93688 19.0551 4.93652 19.0551 4.93617C19.0551 4.93581 19.0551 4.93545 19.0551 4.9351C19.0551 4.93474 19.0551 4.93439 19.0551 4.93403C19.0551 4.93368 19.0551 4.93332 19.0551 4.93297C19.0551 4.93261 19.0551 4.93225 19.0551 4.9319C19.0551 4.93154 19.0551 4.93119 19.0551 4.93083C19.0551 4.93048 19.0551 4.93012 19.0551 4.92976C19.0551 4.92941 19.0551 4.92905 19.0551 4.92869C19.0551 4.92834 19.0551 4.92798 19.0551 4.92763C19.0551 4.92727 19.0551 4.92691 19.0551 4.92656C19.0551 4.9262 19.0551 4.92584 19.0551 4.92549C19.0551 4.92513 19.0551 4.92477 19.0551 4.92442C19.0551 4.92406 19.0551 4.9237 19.0551 4.92334C19.0551 4.92299 19.0551 4.92263 19.0551 4.92227C19.0551 4.92192 19.0551 4.92156 19.0551 4.9212C19.0551 4.92084 19.0551 4.92049 19.0551 4.92013C19.0551 4.91977 19.0551 4.91941 19.0551 4.91906C19.0551 4.9187 19.0551 4.91834 19.0551 4.91798C19.0551 4.91762 19.0551 4.91727 19.0551 4.91691C19.0551 4.91655 19.0551 4.91619 19.0551 4.91583C19.0551 4.91548 19.0551 4.91512 19.0551 4.91476C19.0551 4.9144 19.0551 4.91404 19.0551 4.91368C19.0551 4.91332 19.0551 4.91297 19.0551 4.91261C19.0551 4.91225 19.0551 4.91189 19.0551 4.91153C19.0551 4.91117 19.0551 4.91081 19.0551 4.91045C19.0551 4.91009 19.0551 4.90974 19.0551 4.90938C19.0551 4.90902 19.0551 4.90866 19.0551 4.9083C19.0551 4.90794 19.0551 4.90758 19.0551 4.90722C19.0551 4.90686 19.0551 4.9065 19.0551 4.90614C19.0551 4.90578 19.0551 4.90542 19.0551 4.90506C19.0551 4.9047 19.0551 4.90434 19.0551 4.90398C19.0551 4.90362 19.0551 4.90326 19.0551 4.9029C19.0551 4.90254 19.0551 4.90218 19.0551 4.90182C19.0551 4.90146 19.0551 4.9011 19.0551 4.90073C19.0551 4.90037 19.0551 4.90001 19.0551 4.89965C19.0551 4.89929 19.0551 4.89893 19.0551 4.89857C19.0551 4.89821 19.0551 4.89785 19.0551 4.89749C19.0551 4.89712 19.0551 4.89676 19.0551 4.8964C19.0551 4.89604 19.0551 4.89568 19.0551 4.89532C19.0551 4.89495 19.0551 4.89459 19.0551 4.89423C19.0551 4.89387 19.0551 4.89351 19.0551 4.89314C19.0551 4.89278 19.0551 4.89242 19.0551 4.89206C19.0551 4.8917 19.0551 4.89133 19.0551 4.89097C19.0551 4.89061 19.0551 4.89025 19.0551 4.88988C19.0551 4.88952 19.0551 4.88916 19.0551 4.88879C19.0551 4.88843 19.0551 4.88807 19.0551 4.8877C19.0551 4.88734 19.0551 4.88698 19.0551 4.88662C19.0551 4.88625 19.0551 4.88589 19.0551 4.88552C19.0551 4.88516 19.0551 4.8848 19.0551 4.88443C19.0551 4.88407 19.0551 4.88371 19.0551 4.88334C19.0551 4.88298 19.0551 4.88261 19.0551 4.88225C19.0551 4.88189 19.0551 4.88152 19.0551 4.88116C19.0551 4.88079 19.0551 4.88043 19.0551 4.88006C19.0551 4.8797 19.0551 4.87933 19.0551 4.87897C19.0551 4.87861 19.0551 4.87824 19.0551 4.87788C19.0551 4.87751 19.0551 4.87715 19.0551 4.87678C19.0551 4.87641 19.0551 4.87605 19.0551 4.87568C19.0551 4.87532 19.0551 4.87495 19.0551 4.87459C19.0551 4.87422 19.0551 4.87386 19.0551 4.87349C19.0551 4.87312 19.0551 4.87276 19.0551 4.87239C19.0551 4.87203 19.0551 4.87166 19.0551 4.87129C19.0551 4.87093 19.0551 4.87056 19.0551 4.87019C19.0551 4.86983 19.0551 4.86946 19.0551 4.86909C19.0551 4.86873 19.0551 4.86836 19.0551 4.86799C19.0551 4.86763 19.0551 4.86726 19.0551 4.86689C19.0551 4.86653 19.0551 4.86616 19.0551 4.86579C19.0551 4.86542 19.0551 4.86506 19.0551 4.86469C19.0551 4.86432 19.0551 4.86395 19.0551 4.86358C19.0551 4.86322 19.0551 4.86285 19.0551 4.86248C19.0551 4.86211 19.0551 4.86174 19.0551 4.86138C19.0551 4.86101 19.0551 4.86064 19.0551 4.86027C19.0551 4.8599 19.0551 4.85953 19.0551 4.85916C19.0551 4.8588 19.0551 4.85843 19.0551 4.85806C19.0551 4.85769 19.0551 4.85732 19.0551 4.85695C19.0551 4.85658 19.0551 4.85621 19.0551 4.85584C19.0551 4.85547 19.0551 4.8551 19.0551 4.85473C19.0551 4.85436 19.0551 4.85399 19.0551 4.85362C19.0551 4.85325 19.0551 4.85288 19.0551 4.85251C19.0551 4.85214 19.0551 4.85177 19.0551 4.8514C19.0551 4.85103 19.0551 4.85066 19.0551 4.85029C19.0551 4.84992 19.0551 4.84955 19.0551 4.84918C19.0551 4.84881 19.0551 4.84844 19.0551 4.84807C19.0551 4.84769 19.0551 4.84732 19.0551 4.84695C19.0551 4.84658 19.0551 4.84621 19.0551 4.84584C19.0551 4.84547 19.0551 4.84509 19.0551 4.84472C19.0551 4.84435 19.0551 4.84398 19.0551 4.84361C19.0551 4.84323 19.0551 4.84286 19.0551 4.84249C19.0551 4.84212 19.0551 4.84174 19.0551 4.84137C19.0551 4.841 19.0551 4.84063 19.0551 4.84025C19.0551 4.83988 19.0551 4.83951 19.0551 4.83913C19.0551 4.83876 19.0551 4.83839 19.0551 4.83801C19.0551 4.83764 19.0551 4.83727 19.0551 4.83689C19.0551 4.83652 19.0551 4.83614 19.0551 4.83577C19.0551 4.8354 19.0551 4.83502 19.0551 4.83465C19.0551 4.83427 19.0551 4.8339 19.0551 4.83353C19.0551 4.83315 19.0551 4.83278 19.0551 4.8324C19.0551 4.83203 19.0551 4.83165 19.0551 4.83128C19.0551 4.8309 19.0551 4.83053 19.0551 4.83015C19.0551 4.82978 19.0551 4.8294 19.0551 4.82903C19.0551 4.82865 19.0551 4.82827 19.0551 4.8279C19.0551 4.82752 19.0551 4.82715 19.0551 4.82677C19.0551 4.8264 19.0551 4.82602 19.0551 4.82564C19.0551 4.82527 19.0551 4.82489 19.0551 4.82451C19.0551 4.82414 19.0551 4.82376 19.0551 4.82338C19.0551 4.82301 19.0551 4.82263 19.0551 4.82225C19.0551 4.82187 19.0551 4.8215 19.0551 4.82112C19.0551 4.82074 19.0551 4.82037 19.0551 4.81999C19.0551 4.81961 19.0551 4.81923 19.0551 4.81885C19.0551 4.81848 19.0551 4.8181 19.0551 4.81772C19.0551 4.81734 19.0551 4.81696 19.0551 4.81658C19.0551 4.81621 19.0551 4.81583 19.0551 4.81545C19.0551 4.81507 19.0551 4.81469 19.0551 4.81431C19.0551 4.81393 19.0551 4.81355 19.0551 4.81317C19.0551 4.8128 19.0551 4.81242 19.0551 4.81204C19.0551 4.81166 19.0551 4.81128 19.0551 4.8109C19.0551 4.81052 19.0551 4.81014 19.0551 4.80976C19.0551 4.80938 19.0551 4.809 19.0551 4.80862C19.0551 4.80824 19.0551 4.80785 19.0551 4.80747C19.0551 4.80709 19.0551 4.80671 19.0551 4.80633C19.0551 4.80595 19.0551 4.80557 19.0551 4.80519C19.0551 4.80481 19.0551 4.80442 19.0551 4.80404C19.0551 4.80366 19.0551 4.80328 19.0551 4.8029C19.0551 4.80252 19.0551 4.80213 19.0551 4.80175C19.0551 4.80137 19.0551 4.80099 19.0551 4.8006C19.0551 4.80022 19.0551 4.79984 19.0551 4.79946C19.0551 4.79907 19.0551 4.79869 19.0551 4.79831C19.0551 4.79792 19.0551 4.79754 19.0551 4.79716C19.0551 4.79677 19.0551 4.79639 19.0551 4.79601C19.0551 4.79562 19.0551 4.79524 19.0551 4.79486H17.3706C17.3706 4.79524 17.3706 4.79562 17.3706 4.79601C17.3706 4.79639 17.3706 4.79677 17.3706 4.79716C17.3706 4.79754 17.3706 4.79792 17.3706 4.79831C17.3706 4.79869 17.3706 4.79907 17.3706 4.79946C17.3706 4.79984 17.3706 4.80022 17.3706 4.8006C17.3706 4.80099 17.3706 4.80137 17.3706 4.80175C17.3706 4.80213 17.3706 4.80252 17.3706 4.8029C17.3706 4.80328 17.3706 4.80366 17.3706 4.80404C17.3706 4.80442 17.3706 4.80481 17.3706 4.80519C17.3706 4.80557 17.3706 4.80595 17.3706 4.80633C17.3706 4.80671 17.3706 4.80709 17.3706 4.80747C17.3706 4.80785 17.3706 4.80824 17.3706 4.80862C17.3706 4.809 17.3706 4.80938 17.3706 4.80976C17.3706 4.81014 17.3706 4.81052 17.3706 4.8109C17.3706 4.81128 17.3706 4.81166 17.3706 4.81204C17.3706 4.81242 17.3706 4.8128 17.3706 4.81317C17.3706 4.81355 17.3706 4.81393 17.3706 4.81431C17.3706 4.81469 17.3706 4.81507 17.3706 4.81545C17.3706 4.81583 17.3706 4.81621 17.3706 4.81658C17.3706 4.81696 17.3706 4.81734 17.3706 4.81772C17.3706 4.8181 17.3706 4.81848 17.3706 4.81885C17.3706 4.81923 17.3706 4.81961 17.3706 4.81999C17.3706 4.82037 17.3706 4.82074 17.3706 4.82112C17.3706 4.8215 17.3706 4.82187 17.3706 4.82225C17.3706 4.82263 17.3706 4.82301 17.3706 4.82338C17.3706 4.82376 17.3706 4.82414 17.3706 4.82451C17.3706 4.82489 17.3706 4.82527 17.3706 4.82564C17.3706 4.82602 17.3706 4.8264 17.3706 4.82677C17.3706 4.82715 17.3706 4.82752 17.3706 4.8279C17.3706 4.82827 17.3706 4.82865 17.3706 4.82903C17.3706 4.8294 17.3706 4.82978 17.3706 4.83015C17.3706 4.83053 17.3706 4.8309 17.3706 4.83128C17.3706 4.83165 17.3706 4.83203 17.3706 4.8324C17.3706 4.83278 17.3706 4.83315 17.3706 4.83353C17.3706 4.8339 17.3706 4.83427 17.3706 4.83465C17.3706 4.83502 17.3706 4.8354 17.3706 4.83577C17.3706 4.83614 17.3706 4.83652 17.3706 4.83689C17.3706 4.83727 17.3706 4.83764 17.3706 4.83801C17.3706 4.83839 17.3706 4.83876 17.3706 4.83913C17.3706 4.83951 17.3706 4.83988 17.3706 4.84025C17.3706 4.84063 17.3706 4.841 17.3706 4.84137C17.3706 4.84174 17.3706 4.84212 17.3706 4.84249C17.3706 4.84286 17.3706 4.84323 17.3706 4.84361C17.3706 4.84398 17.3706 4.84435 17.3706 4.84472C17.3706 4.84509 17.3706 4.84547 17.3706 4.84584C17.3706 4.84621 17.3706 4.84658 17.3706 4.84695C17.3706 4.84732 17.3706 4.84769 17.3706 4.84807C17.3706 4.84844 17.3706 4.84881 17.3706 4.84918C17.3706 4.84955 17.3706 4.84992 17.3706 4.85029C17.3706 4.85066 17.3706 4.85103 17.3706 4.8514C17.3706 4.85177 17.3706 4.85214 17.3706 4.85251C17.3706 4.85288 17.3706 4.85325 17.3706 4.85362C17.3706 4.85399 17.3706 4.85436 17.3706 4.85473C17.3706 4.8551 17.3706 4.85547 17.3706 4.85584C17.3706 4.85621 17.3706 4.85658 17.3706 4.85695C17.3706 4.85732 17.3706 4.85769 17.3706 4.85806C17.3706 4.85843 17.3706 4.8588 17.3706 4.85916C17.3706 4.85953 17.3706 4.8599 17.3706 4.86027C17.3706 4.86064 17.3706 4.86101 17.3706 4.86138C17.3706 4.86174 17.3706 4.86211 17.3706 4.86248C17.3706 4.86285 17.3706 4.86322 17.3706 4.86358C17.3706 4.86395 17.3706 4.86432 17.3706 4.86469C17.3706 4.86506 17.3706 4.86542 17.3706 4.86579C17.3706 4.86616 17.3706 4.86653 17.3706 4.86689C17.3706 4.86726 17.3706 4.86763 17.3706 4.86799C17.3706 4.86836 17.3706 4.86873 17.3706 4.86909C17.3706 4.86946 17.3706 4.86983 17.3706 4.87019C17.3706 4.87056 17.3706 4.87093 17.3706 4.87129C17.3706 4.87166 17.3706 4.87203 17.3706 4.87239C17.3706 4.87276 17.3706 4.87312 17.3706 4.87349C17.3706 4.87386 17.3706 4.87422 17.3706 4.87459C17.3706 4.87495 17.3706 4.87532 17.3706 4.87568C17.3706 4.87605 17.3706 4.87641 17.3706 4.87678C17.3706 4.87715 17.3706 4.87751 17.3706 4.87788C17.3706 4.87824 17.3706 4.87861 17.3706 4.87897C17.3706 4.87933 17.3706 4.8797 17.3706 4.88006C17.3706 4.88043 17.3706 4.88079 17.3706 4.88116C17.3706 4.88152 17.3706 4.88189 17.3706 4.88225C17.3706 4.88261 17.3706 4.88298 17.3706 4.88334C17.3706 4.88371 17.3706 4.88407 17.3706 4.88443C17.3706 4.8848 17.3706 4.88516 17.3706 4.88552C17.3706 4.88589 17.3706 4.88625 17.3706 4.88662C17.3706 4.88698 17.3706 4.88734 17.3706 4.8877C17.3706 4.88807 17.3706 4.88843 17.3706 4.88879C17.3706 4.88916 17.3706 4.88952 17.3706 4.88988C17.3706 4.89025 17.3706 4.89061 17.3706 4.89097C17.3706 4.89133 17.3706 4.8917 17.3706 4.89206C17.3706 4.89242 17.3706 4.89278 17.3706 4.89314C17.3706 4.89351 17.3706 4.89387 17.3706 4.89423C17.3706 4.89459 17.3706 4.89495 17.3706 4.89532C17.3706 4.89568 17.3706 4.89604 17.3706 4.8964C17.3706 4.89676 17.3706 4.89712 17.3706 4.89749C17.3706 4.89785 17.3706 4.89821 17.3706 4.89857C17.3706 4.89893 17.3706 4.89929 17.3706 4.89965C17.3706 4.90001 17.3706 4.90037 17.3706 4.90073C17.3706 4.9011 17.3706 4.90146 17.3706 4.90182C17.3706 4.90218 17.3706 4.90254 17.3706 4.9029C17.3706 4.90326 17.3706 4.90362 17.3706 4.90398C17.3706 4.90434 17.3706 4.9047 17.3706 4.90506C17.3706 4.90542 17.3706 4.90578 17.3706 4.90614C17.3706 4.9065 17.3706 4.90686 17.3706 4.90722C17.3706 4.90758 17.3706 4.90794 17.3706 4.9083C17.3706 4.90866 17.3706 4.90902 17.3706 4.90938C17.3706 4.90974 17.3706 4.91009 17.3706 4.91045C17.3706 4.91081 17.3706 4.91117 17.3706 4.91153C17.3706 4.91189 17.3706 4.91225 17.3706 4.91261C17.3706 4.91297 17.3706 4.91332 17.3706 4.91368C17.3706 4.91404 17.3706 4.9144 17.3706 4.91476C17.3706 4.91512 17.3706 4.91548 17.3706 4.91583C17.3706 4.91619 17.3706 4.91655 17.3706 4.91691C17.3706 4.91727 17.3706 4.91762 17.3706 4.91798C17.3706 4.91834 17.3706 4.9187 17.3706 4.91906C17.3706 4.91941 17.3706 4.91977 17.3706 4.92013C17.3706 4.92049 17.3706 4.92084 17.3706 4.9212C17.3706 4.92156 17.3706 4.92192 17.3706 4.92227C17.3706 4.92263 17.3706 4.92299 17.3706 4.92334C17.3706 4.9237 17.3706 4.92406 17.3706 4.92442C17.3706 4.92477 17.3706 4.92513 17.3706 4.92549C17.3706 4.92584 17.3706 4.9262 17.3706 4.92656C17.3706 4.92691 17.3706 4.92727 17.3706 4.92763C17.3706 4.92798 17.3706 4.92834 17.3706 4.92869C17.3706 4.92905 17.3706 4.92941 17.3706 4.92976C17.3706 4.93012 17.3706 4.93048 17.3706 4.93083C17.3706 4.93119 17.3706 4.93154 17.3706 4.9319C17.3706 4.93225 17.3706 4.93261 17.3706 4.93297C17.3706 4.93332 17.3706 4.93368 17.3706 4.93403C17.3706 4.93439 17.3706 4.93474 17.3706 4.9351C17.3706 4.93545 17.3706 4.93581 17.3706 4.93617C17.3706 4.93652 17.3706 4.93688 17.3706 4.93723C17.3706 4.93759 17.3706 4.93794 17.3706 4.9383C17.3706 4.93865 17.3706 4.93901 17.3706 4.93936C17.3706 4.93971 17.3706 4.94007 17.3706 4.94042C17.3706 4.94078 17.3706 4.94113 17.3706 4.94149C17.3706 4.94184 17.3706 4.9422 17.3706 4.94255C17.3706 4.9429 17.3706 4.94326 17.3706 4.94361C17.3706 4.94397 17.3706 4.94432 17.3706 4.94468C17.3706 4.94503 17.3706 4.94538 17.3706 4.94574C17.3706 4.94609 17.3706 4.94645 17.3706 4.9468C17.3706 4.94715 17.3706 4.94751 17.3706 4.94786C17.3706 4.94821 17.3706 4.94857 17.3706 4.94892C17.3706 4.94927 17.3706 4.94963 17.3706 4.94998C17.3706 4.95033 17.3706 4.95069 17.3706 4.95104C17.3706 4.95139 17.3706 4.95175 17.3706 4.9521C17.3706 4.95245 17.3706 4.95281 17.3706 4.95316C17.3706 4.95351 17.3706 4.95386 17.3706 4.95422C17.3706 4.95457 17.3706 4.95492 17.3706 4.95528C17.3706 4.95563 17.3706 4.95598 17.3706 4.95633C17.3706 4.95669 17.3706 4.95704 17.3706 4.95739C17.3706 4.95774 17.3706 4.9581 17.3706 4.95845C17.3706 4.9588 17.3706 4.95915 17.3706 4.95951C17.3706 4.95986 17.3706 4.96021 17.3706 4.96056C17.3706 4.96091 17.3706 4.96127 17.3706 4.96162C17.3706 4.96197 17.3706 4.96232 17.3706 4.96267C17.3706 4.96302 17.3706 4.96338 17.3706 4.96373C17.3706 4.96408 17.3706 4.96443 17.3706 4.96478C17.3706 4.96513 17.3706 4.96549 17.3706 4.96584C17.3706 4.96619 17.3706 4.96654 17.3706 4.96689C17.3706 4.96724 17.3706 4.96759 17.3706 4.96795C17.3706 4.9683 17.3706 4.96865 17.3706 4.969C17.3706 4.96935 17.3706 4.9697 17.3706 4.97005C17.3706 4.9704 17.3706 4.97075 17.3706 4.97111C17.3706 4.97146 17.3706 4.97181 17.3706 4.97216C17.3706 4.97251 17.3706 4.97286 17.3706 4.97321C17.3706 4.97356 17.3706 4.97391 17.3706 4.97426C17.3706 4.97461 17.3706 4.97496 17.3706 4.97531C17.3706 4.97566 17.3706 4.97601 17.3706 4.97636C17.3706 4.97671 17.3706 4.97706 17.3706 4.97742C17.3706 4.97777 17.3706 4.97812 17.3706 4.97847C17.3706 4.97882 17.3706 4.97917 17.3706 4.97952C17.3706 4.97987 17.3706 4.98022 17.3706 4.98057C17.3706 4.98092 17.3706 4.98127 17.3706 4.98162C17.3706 4.98197 17.3706 4.98232 17.3706 4.98266C17.3706 4.98301 17.3706 4.98336 17.3706 4.98371C17.3706 4.98406 17.3706 4.98441 17.3706 4.98476C17.3706 4.98511 17.3706 4.98546 17.3706 4.98581C17.3706 4.98616 17.3706 4.98651 17.3706 4.98686C17.3706 4.98721 17.3706 4.98756 17.3706 4.98791C17.3706 4.98826 17.3706 4.98861 17.3706 4.98895C17.3706 4.9893 17.3706 4.98965 17.3706 4.99C17.3706 4.99035 17.3706 4.9907 17.3706 4.99105C17.3706 4.9914 17.3706 4.99175 17.3706 4.9921C17.3706 4.99244 17.3706 4.99279 17.3706 4.99314C17.3706 4.99349 17.3706 4.99384 17.3706 4.99419C17.3706 4.99454 17.3706 4.99489 17.3706 4.99523C17.3706 4.99558 17.3706 4.99593 17.3706 4.99628C17.3706 4.99663 17.3706 4.99698 17.3706 4.99733C17.3706 4.99767 17.3706 4.99802 17.3706 4.99837C17.3706 4.99872 17.3706 4.99907 17.3706 4.99942C17.3706 4.99976 17.3706 5.00011 17.3706 5.00046C17.3706 5.00081 17.3706 5.00116 17.3706 5.00151C17.3706 5.00185 17.3706 5.0022 17.3706 5.00255C17.3706 5.0029 17.3706 5.00325 17.3706 5.00359C17.3706 5.00394 17.3706 5.00429 17.3706 5.00464C17.3706 5.00499 17.3706 5.00533 17.3706 5.00568C17.3706 5.00603 17.3706 5.00638 17.3706 5.00673C17.3706 5.00707 17.3706 5.00742 17.3706 5.00777C17.3706 5.00812 17.3706 5.00846 17.3706 5.00881C17.3706 5.00916 17.3706 5.00951 17.3706 5.00985C17.3706 5.0102 17.3706 5.01055 17.3706 5.0109C17.3706 5.01124 17.3706 5.01159 17.3706 5.01194C17.3706 5.01229 17.3706 5.01263 17.3706 5.01298C17.3706 5.01333 17.3706 5.01368 17.3706 5.01402C17.3706 5.01437 17.3706 5.01472 17.3706 5.01507C17.3706 5.01541 17.3706 5.01576 17.3706 5.01611C17.3706 5.01645 17.3706 5.0168 17.3706 5.01715C17.3706 5.0175 17.3706 5.01784 17.3706 5.01819C17.3706 5.01854 17.3706 5.01888 17.3706 5.01923C17.3706 5.01958 17.3706 5.01992 17.3706 5.02027C17.3706 5.02062 17.3706 5.02097 17.3706 5.02131C17.3706 5.02166 17.3706 5.02201 17.3706 5.02235C17.3706 5.0227 17.3706 5.02305 17.3706 5.02339C17.3706 5.02374 17.3706 5.02409 17.3706 5.02443C17.3706 5.02478 17.3706 5.02513 17.3706 5.02547C17.3706 5.02582 17.3706 5.02617 17.3706 5.02651C17.3706 5.02686 17.3706 5.02721 17.3706 5.02755C17.3706 5.0279 17.3706 5.02825 17.3706 5.02859C17.3706 5.02894 17.3706 5.02929 17.3706 5.02963C17.3706 5.02998 17.3706 5.03033 17.3706 5.03067C17.3706 5.03102 17.3706 5.03136 17.3706 5.03171C17.3706 5.03206 17.3706 5.0324 17.3706 5.03275C17.3706 5.0331 17.3706 5.03344 17.3706 5.03379C17.3706 5.03414 17.3706 5.03448 17.3706 5.03483C17.3706 5.03517 17.3706 5.03552 17.3706 5.03587C17.3706 5.03621 17.3706 5.03656 17.3706 5.03691C17.3706 5.03725 17.3706 5.0376 17.3706 5.03794C17.3706 5.03829 17.3706 5.03864 17.3706 5.03898C17.3706 5.03933 17.3706 5.03967 17.3706 5.04002C17.3706 5.04037 17.3706 5.04071 17.3706 5.04106C17.3706 5.04141 17.3706 5.04175 17.3706 5.0421C17.3706 5.04244 17.3706 5.04279 17.3706 5.04314C17.3706 5.04348 17.3706 5.04383 17.3706 5.04417C17.3706 5.04452 17.3706 5.04487 17.3706 5.04521C17.3706 5.04556 17.3706 5.0459 17.3706 5.04625C17.3706 5.04659 17.3706 5.04694 17.3706 5.04729C17.3706 5.04763 17.3706 5.04798 17.3706 5.04832C17.3706 5.04867 17.3706 5.04902 17.3706 5.04936C17.3706 5.04971 17.3706 5.05005 17.3706 5.0504C17.3706 5.05074 17.3706 5.05109 17.3706 5.05144C17.3706 5.05178 17.3706 5.05213 17.3706 5.05247C17.3706 5.05282 17.3706 5.05317 17.3706 5.05351C17.3706 5.05386 17.3706 5.0542 17.3706 5.05455C17.3706 5.05489 17.3706 5.05524 17.3706 5.05559C17.3706 5.05593 17.3706 5.05628 17.3706 5.05662C17.3706 5.05697 17.3706 5.05731 17.3706 5.05766C17.3706 5.05801 17.3706 5.05835 17.3706 5.0587C17.3706 5.05904 17.3706 5.05939 17.3706 5.05973C17.3706 5.06008 17.3706 5.06042 17.3706 5.06077C17.3706 5.06112 17.3706 5.06146 17.3706 5.06181C17.3706 5.06215 17.3706 5.0625 17.3706 5.06284C17.3706 5.06319 17.3706 5.06354 17.3706 5.06388C17.3706 5.06423 17.3706 5.06457 17.3706 5.06492C17.3706 5.06526 17.3706 5.06561 17.3706 5.06595C17.3706 5.0663 17.3706 5.06665 17.3706 5.06699C17.3706 5.06734 17.3706 5.06768 17.3706 5.06803C17.3706 5.06837 17.3706 5.06872 17.3706 5.06907C17.3706 5.06941 17.3706 5.06976 17.3706 5.0701C17.3706 5.07045 17.3706 5.07079 17.3706 5.07114C17.3706 5.07148 17.3706 5.07183 17.3706 5.07218C17.3706 5.07252 17.3706 5.07287 17.3706 5.07321C17.3706 5.07356 17.3706 5.0739 17.3706 5.07425C17.3706 5.07459 17.3706 5.07494 17.3706 5.07529C17.3706 5.07563 17.3706 5.07598 17.3706 5.07632C17.3706 5.07667 17.3706 5.07701 17.3706 5.07736C17.3706 5.07771 17.3706 5.07805 17.3706 5.0784C17.3706 5.07874 17.3706 5.07909 17.3706 5.07943C17.3706 5.07978 17.3706 5.08012 17.3706 5.08047C17.3706 5.08082 17.3706 5.08116 17.3706 5.08151C17.3706 5.08185 17.3706 5.0822 17.3706 5.08254C17.3706 5.08289 17.3706 5.08324 17.3706 5.08358C17.3706 5.08393 17.3706 5.08427 17.3706 5.08462C17.3706 5.08496 17.3706 5.08531 17.3706 5.08566C17.3706 5.086 17.3706 5.08635 17.3706 5.08669C17.3706 5.08704 17.3706 5.08738 17.3706 5.08773C17.3706 5.08808 17.3706 5.08842 17.3706 5.08877C17.3706 5.08911 17.3706 5.08946 17.3706 5.0898C17.3706 5.09015 17.3706 5.0905 17.3706 5.09084C17.3706 5.09119 17.3706 5.09153 17.3706 5.09188C17.3706 5.09223 17.3706 5.09257 17.3706 5.09292C17.3706 5.09326 17.3706 5.09361 17.3706 5.09395C17.3706 5.0943 17.3706 5.09465 17.3706 5.09499C17.3706 5.09534 17.3706 5.09568 17.3706 5.09603C17.3706 5.09638 17.3706 5.09672 17.3706 5.09707C17.3706 5.09741 17.3706 5.09776 17.3706 5.09811C17.3706 5.09845 17.3706 5.0988 17.3706 5.09914C17.3706 5.09949 17.3706 5.09984 17.3706 5.10018C17.3706 5.10053 17.3706 5.10087 17.3706 5.10122C17.3706 5.10157 17.3706 5.10191 17.3706 5.10226C17.3706 5.10261 17.3706 5.10295 17.3706 5.1033C17.3706 5.10364 17.3706 5.10399 17.3706 5.10434C17.3706 5.10468 17.3706 5.10503 17.3706 5.10538C17.3706 5.10572 17.3706 5.10607 17.3706 5.10641C17.3706 5.10676 17.3706 5.10711 17.3706 5.10745C17.3706 5.1078 17.3706 5.10815 17.3706 5.10849C17.3706 5.10884 17.3706 5.10919 17.3706 5.10953C17.3706 5.10988 17.3706 5.11022 17.3706 5.11057C17.3706 5.11092 17.3706 5.11126 17.3706 5.11161C17.3706 5.11196 17.3706 5.1123 17.3706 5.11265C17.3706 5.113 17.3706 5.11334 17.3706 5.11369C17.3706 5.11404 17.3706 5.11438 17.3706 5.11473C17.3706 5.11508 17.3706 5.11542 17.3706 5.11577C17.3706 5.11612 17.3706 5.11646 17.3706 5.11681C17.3706 5.11716 17.3706 5.1175 17.3706 5.11785C17.3706 5.1182 17.3706 5.11854 17.3706 5.11889C17.3706 5.11924 17.3706 5.11959 17.3706 5.11993C17.3706 5.12028 17.3706 5.12063 17.3706 5.12097C17.3706 5.12132 17.3706 5.12167 17.3706 5.12201C17.3706 5.12236 17.3706 5.12271 17.3706 5.12306C17.3706 5.1234 17.3706 5.12375 17.3706 5.1241C17.3706 5.12444 17.3706 5.12479 17.3706 5.12514C17.3706 5.12549 17.3706 5.12583 17.3706 5.12618C17.3706 5.12653 17.3706 5.12687 17.3706 5.12722C17.3706 5.12757 17.3706 5.12792 17.3706 5.12826C17.3706 5.12861 17.3706 5.12896 17.3706 5.12931C17.3706 5.12965 17.3706 5.13 17.3706 5.13035C17.3706 5.1307 17.3706 5.13104 17.3706 5.13139C17.3706 5.13174 17.3706 5.13209 17.3706 5.13244C17.3706 5.13278 17.3706 5.13313 17.3706 5.13348C17.3706 5.13383 17.3706 5.13417 17.3706 5.13452C17.3706 5.13487 17.3706 5.13522 17.3706 5.13557C17.3706 5.13591 17.3706 5.13626 17.3706 5.13661C17.3706 5.13696 17.3706 5.13731 17.3706 5.13765C17.3706 5.138 17.3706 5.13835 17.3706 5.1387C17.3706 5.13905 17.3706 5.13939 17.3706 5.13974C17.3706 5.14009 17.3706 5.14044 17.3706 5.14079C17.3706 5.14114 17.3706 5.14148 17.3706 5.14183C17.3706 5.14218 17.3706 5.14253 17.3706 5.14288C17.3706 5.14323 17.3706 5.14357 17.3706 5.14392C17.3706 5.14427 17.3706 5.14462 17.3706 5.14497C17.3706 5.14532 17.3706 5.14567 17.3706 5.14601C17.3706 5.14636 17.3706 5.14671 17.3706 5.14706C17.3706 5.14741 17.3706 5.14776 17.3706 5.14811C17.3706 5.14846 17.3706 5.14881 17.3706 5.14915C17.3706 5.1495 17.3706 5.14985 17.3706 5.1502C17.3706 5.15055 17.3706 5.1509 17.3706 5.15125C17.3706 5.1516 17.3706 5.15195 17.3706 5.1523C17.3706 5.15265 17.3706 5.15299 17.3706 5.15334C17.3706 5.15369 17.3706 5.15404 17.3706 5.15439C17.3706 5.15474 17.3706 5.15509 17.3706 5.15544C17.3706 5.15579 17.3706 5.15614 17.3706 5.15649C17.3706 5.15684 17.3706 5.15719 17.3706 5.15754C17.3706 5.15789 17.3706 5.15824 17.3706 5.15859C17.3706 5.15894 17.3706 5.15929 17.3706 5.15964C17.3706 5.15999 17.3706 5.16034 17.3706 5.16069C17.3706 5.16104 17.3706 5.16139 17.3706 5.16174C17.3706 5.16209 17.3706 5.16244 17.3706 5.16279C17.3706 5.16314 17.3706 5.16349 17.3706 5.16384C17.3706 5.16419 17.3706 5.16454 17.3706 5.16489C17.3706 5.16524 17.3706 5.16559 17.3706 5.16594C17.3706 5.16629 17.3706 5.16664 17.3706 5.16699C17.3706 5.16734 17.3706 5.1677 17.3706 5.16805C17.3706 5.1684 17.3706 5.16875 17.3706 5.1691C17.3706 5.16945 17.3706 5.1698 17.3706 5.17015C17.3706 5.1705 17.3706 5.17085 17.3706 5.1712C17.3706 5.17156 17.3706 5.17191 17.3706 5.17226C17.3706 5.17261 17.3706 5.17296 17.3706 5.17331C17.3706 5.17366 17.3706 5.17401 17.3706 5.17437C17.3706 5.17472 17.3706 5.17507 17.3706 5.17542C17.3706 5.17577 17.3706 5.17612 17.3706 5.17648C17.3706 5.17683 17.3706 5.17718 17.3706 5.17753C17.3706 5.17788 17.3706 5.17823 17.3706 5.17859C17.3706 5.17894 17.3706 5.17929 17.3706 5.17964C17.3706 5.17999 17.3706 5.18035 17.3706 5.1807C17.3706 5.18105 17.3706 5.1814 17.3706 5.18176C17.3706 5.18211 17.3706 5.18246 17.3706 5.18281C17.3706 5.18316 17.3706 5.18352 17.3706 5.18387C17.3706 5.18422 17.3706 5.18457 17.3706 5.18493C17.3706 5.18528 17.3706 5.18563 17.3706 5.18599C17.3706 5.18634 17.3706 5.18669 17.3706 5.18704C17.3706 5.1874 17.3706 5.18775 17.3706 5.1881C17.3706 5.18846 17.3706 5.18881 17.3706 5.18916C17.3706 5.18952 17.3706 5.18987 17.3706 5.19022C17.3706 5.19058 17.3706 5.19093 17.3706 5.19128C17.3706 5.19164 17.3706 5.19199 17.3706 5.19234C17.3706 5.1927 17.3706 5.19305 17.3706 5.1934C17.3706 5.19376 17.3706 5.19411 17.3706 5.19447C17.3706 5.19482 17.3706 5.19517 17.3706 5.19553C17.3706 5.19588 17.3706 5.19624 17.3706 5.19659C17.3706 5.19694 17.3706 5.1973 17.3706 5.19765C17.3706 5.19801 17.3706 5.19836 17.3706 5.19872C17.3706 5.19907 17.3706 5.19943 17.3706 5.19978C17.3706 5.20013 17.3706 5.20049 17.3706 5.20084C17.3706 5.2012 17.3706 5.20155 17.3706 5.20191C17.3706 5.20226 17.3706 5.20262 17.3706 5.20297C17.3706 5.20333 17.3706 5.20368 17.3706 5.20404C17.3706 5.20439 17.3706 5.20475 17.3706 5.2051C17.3706 5.20546 17.3706 5.20582 17.3706 5.20617C17.3706 5.20653 17.3706 5.20688 17.3706 5.20724C17.3706 5.20759 17.3706 5.20795 17.3706 5.2083C17.3706 5.20866 17.3706 5.20902 17.3706 5.20937C17.3706 5.20973 17.3706 5.21008 17.3706 5.21044C17.3706 5.2108 17.3706 5.21115 17.3706 5.21151C17.3706 5.21187 17.3706 5.21222 17.3706 5.21258C17.3706 5.21293 17.3706 5.21329 17.3706 5.21365C17.3706 5.214 17.3706 5.21436 17.3706 5.21472C17.3706 5.21507 17.3706 5.21543 17.3706 5.21579C17.3706 5.21614 17.3706 5.2165 17.3706 5.21686C17.3706 5.21722 17.3706 5.21757 17.3706 5.21793C17.3706 5.21829 17.3706 5.21864 17.3706 5.219C17.3706 5.21936 17.3706 5.21972 17.3706 5.22007C17.3706 5.22043 17.3706 5.22079 17.3706 5.22115C17.3706 5.22151 17.3706 5.22186 17.3706 5.22222C17.3706 5.22258 17.3706 5.22294 17.3706 5.2233C17.3706 5.22365 17.3706 5.22401 17.3706 5.22437C17.3706 5.22473 17.3706 5.22509 17.3706 5.22544C17.3706 5.2258 17.3706 5.22616 17.3706 5.22652C17.3706 5.22688 17.3706 5.22724 17.3706 5.2276C17.3706 5.22796 17.3706 5.22831 17.3706 5.22867C17.3706 5.22903 17.3706 5.22939 17.3706 5.22975C17.3706 5.23011 17.3706 5.23047 17.3706 5.23083C17.3706 5.23119 17.3706 5.23155 17.3706 5.23191C17.3706 5.23227 17.3706 5.23263 17.3706 5.23298C17.3706 5.23334 17.3706 5.2337 17.3706 5.23406C17.3706 5.23442 17.3706 5.23478 17.3706 5.23514C17.3706 5.2355 17.3706 5.23586 17.3706 5.23622C17.3706 5.23658 17.3706 5.23694 17.3706 5.23731C17.3706 5.23767 17.3706 5.23803 17.3706 5.23839C17.3706 5.23875 17.3706 5.23911 17.3706 5.23947C17.3706 5.23983 17.3706 5.24019 17.3706 5.24055C17.3706 5.24091 17.3706 5.24127 17.3706 5.24163C17.3706 5.242 17.3706 5.24236 17.3706 5.24272C17.3706 5.24308 17.3706 5.24344 17.3706 5.2438C17.3706 5.24416 17.3706 5.24453 17.3706 5.24489C17.3706 5.24525 17.3706 5.24561 17.3706 5.24597C17.3706 5.24634 17.3706 5.2467 17.3706 5.24706C17.3706 5.24742 17.3706 5.24778 17.3706 5.24815C17.3706 5.24851 17.3706 5.24887 17.3706 5.24923C17.3706 5.2496 17.3706 5.24996 17.3706 5.25032C17.3706 5.25068 17.3706 5.25105 17.3706 5.25141C17.3706 5.25177 17.3706 5.25214 17.3706 5.2525C17.3706 5.25286 17.3706 5.25323 17.3706 5.25359C17.3706 5.25395 17.3706 5.25432 17.3706 5.25468C17.3706 5.25504 17.3706 5.25541 17.3706 5.25577C17.3706 5.25613 17.3706 5.2565 17.3706 5.25686C17.3706 5.25723 17.3706 5.25759 17.3706 5.25795C17.3706 5.25832 17.3706 5.25868 17.3706 5.25905C17.3706 5.25941 17.3706 5.25977 17.3706 5.26014C17.3706 5.2605 17.3706 5.26087 17.3706 5.26123C17.3706 5.2616 17.3706 5.26196 17.3706 5.26233C17.3706 5.26269 17.3706 5.26306 17.3706 5.26342C17.3706 5.26379 17.3706 5.26415 17.3706 5.26452C17.3706 5.26488 17.3706 5.26525 17.3706 5.26562C17.3706 5.26598 17.3706 5.26635 17.3706 5.26671C17.3706 5.26708 17.3706 5.26745 17.3706 5.26781C17.3706 5.26818 17.3706 5.26854 17.3706 5.26891C17.3706 5.26928 17.3706 5.26964 17.3706 5.27001C17.3706 5.27038 17.3706 5.27074 17.3706 5.27111C17.3706 5.27148 17.3706 5.27184 17.3706 5.27221C17.3706 5.27258 17.3706 5.27294 17.3706 5.27331C17.3706 5.27368 17.3706 5.27405 17.3706 5.27441C17.3706 5.27478 17.3706 5.27515 17.3706 5.27552C17.3706 5.27588 17.3706 5.27625 17.3706 5.27662C17.3706 5.27699 17.3706 5.27735 17.3706 5.27772C17.3706 5.27809 17.3706 5.27846 17.3706 5.27883C17.3706 5.2792 17.3706 5.27956 17.3706 5.27993C17.3706 5.2803 17.3706 5.28067 17.3706 5.28104C17.3706 5.28141 17.3706 5.28178 17.3706 5.28215C17.3706 5.28251 17.3706 5.28288 17.3706 5.28325C17.3706 5.28362 17.3706 5.28399 17.3706 5.28436C17.3706 5.28473 17.3706 5.2851 17.3706 5.28547C17.3706 5.28584 17.3706 5.28621 17.3706 5.28658C17.3706 5.28695 17.3706 5.28732 17.3706 5.28769C17.3706 5.28806 17.3706 5.28843 17.3706 5.2888C17.3706 5.28917 17.3706 5.28954 17.3706 5.28991C17.3706 5.29028 17.3706 5.29065 17.3706 5.29102C17.3706 5.2914 17.3706 5.29177 17.3706 5.29214C17.3706 5.29251 17.3706 5.29288 17.3706 5.29325C17.3706 5.29362 17.3706 5.294 17.3706 5.29437C17.3706 5.29474 17.3706 5.29511 17.3706 5.29548C17.3706 5.29585 17.3706 5.29623 17.3706 5.2966C17.3706 5.29697 17.3706 5.29734 17.3706 5.29772C17.3706 5.29809 17.3706 5.29846 17.3706 5.29883C17.3706 5.29921 17.3706 5.29958 17.3706 5.29995C17.3706 5.30032 17.3706 5.3007 17.3706 5.30107C17.3706 5.30144 17.3706 5.30182 17.3706 5.30219C17.3706 5.30256 17.3706 5.30294 17.3706 5.30331C17.3706 5.30368 17.3706 5.30406 17.3706 5.30443C17.3706 5.30481 17.3706 5.30518 17.3706 5.30555C17.3706 5.30593 17.3706 5.3063 17.3706 5.30668C17.3706 5.30705 17.3706 5.30743 17.3706 5.3078C17.3706 5.30818 17.3706 5.30855 17.3706 5.30893C17.3706 5.3093 17.3706 5.30968 17.3706 5.31005C17.3706 5.31043 17.3706 5.3108 17.3706 5.31118C17.3706 5.31155 17.3706 5.31193 17.3706 5.3123C17.3706 5.31268 17.3706 5.31306 17.3706 5.31343C17.3706 5.31381 17.3706 5.31418 17.3706 5.31456C17.3706 5.31494 17.3706 5.31531 17.3706 5.31569C17.3706 5.31607 17.3706 5.31644 17.3706 5.31682C17.3706 5.3172 17.3706 5.31757 17.3706 5.31795C17.3706 5.31833 17.3706 5.31871 17.3706 5.31908C17.3706 5.31946 17.3706 5.31984 17.3706 5.32022C17.3706 5.32059 17.3706 5.32097 17.3706 5.32135C17.3706 5.32173 17.3706 5.32211 17.3706 5.32248C17.3706 5.32286 17.3706 5.32324 17.3706 5.32362C17.3706 5.324 17.3706 5.32438 17.3706 5.32475C17.3706 5.32513 17.3706 5.32551 17.3706 5.32589C17.3706 5.32627 17.3706 5.32665 17.3706 5.32703C17.3706 5.32741 17.3706 5.32779 17.3706 5.32817C17.3706 5.32855 17.3706 5.32893 17.3706 5.32931C17.3706 5.32969 17.3706 5.33007 17.3706 5.33045C17.3706 5.33083 17.3706 5.33121 17.3706 5.33159C17.3706 5.33197 17.3706 5.33235 17.3706 5.33273C17.3706 5.33311 17.3706 5.33349 17.3706 5.33387C17.3706 5.33425 17.3706 5.33463 17.3706 5.33502C17.3706 5.3354 17.3706 5.33578 17.3706 5.33616C17.3706 5.33654 17.3706 5.33692 17.3706 5.33731C17.3706 5.33769 17.3706 5.33807 17.3706 5.33845C17.3706 5.33883 17.3706 5.33922 17.3706 5.3396C17.3706 5.33998 17.3706 5.34036 17.3706 5.34075C17.3706 5.34113 17.3706 5.34151 17.3706 5.3419C17.3706 5.34228 17.3706 5.34266 17.3706 5.34305C17.3706 5.34343 17.3706 5.34381 17.3706 5.3442C17.3706 5.34458 17.3706 5.34496 17.3706 5.34535H19.0551Z" fill="black"/>
</svg>
